<svg width="865" height="555" viewBox="0 0 865 555" fill="none" xmlns="http://www.w3.org/2000/svg">
<ellipse cx="823" cy="171.5" rx="42" ry="41.5" fill="#EDC806"/>
<path d="M814.357 180.379C813.711 180.379 813.157 180.152 812.695 179.697C812.234 179.236 812.006 178.682 812.013 178.036C812.006 177.396 812.234 176.849 812.695 176.395C813.157 175.94 813.711 175.713 814.357 175.713C814.982 175.713 815.526 175.94 815.987 176.395C816.456 176.849 816.694 177.396 816.701 178.036C816.694 178.469 816.58 178.863 816.36 179.218C816.147 179.573 815.863 179.857 815.508 180.07C815.16 180.276 814.776 180.379 814.357 180.379ZM814.357 169.566C813.711 169.566 813.157 169.339 812.695 168.884C812.234 168.423 812.006 167.869 812.013 167.222C812.006 166.583 812.234 166.036 812.695 165.582C813.157 165.12 813.711 164.889 814.357 164.889C814.982 164.889 815.526 165.12 815.987 165.582C816.456 166.036 816.694 166.583 816.701 167.222C816.694 167.648 816.58 168.039 816.36 168.394C816.147 168.749 815.863 169.033 815.508 169.246C815.16 169.46 814.776 169.566 814.357 169.566ZM824.369 176.587V176.31C824.376 175.024 824.497 174.001 824.731 173.241C824.972 172.482 825.313 171.871 825.754 171.409C826.194 170.94 826.73 170.511 827.362 170.12C827.796 169.85 828.183 169.555 828.524 169.236C828.872 168.909 829.145 168.547 829.344 168.149C829.543 167.744 829.642 167.293 829.642 166.796C829.642 166.235 829.511 165.749 829.248 165.337C828.985 164.925 828.63 164.605 828.183 164.378C827.742 164.151 827.249 164.037 826.702 164.037C826.198 164.037 825.718 164.147 825.264 164.367C824.816 164.58 824.443 164.907 824.145 165.347C823.854 165.781 823.691 166.331 823.655 166.999H819.862C819.898 165.649 820.225 164.52 820.843 163.611C821.468 162.702 822.291 162.02 823.314 161.565C824.344 161.111 825.48 160.884 826.723 160.884C828.08 160.884 829.273 161.121 830.303 161.597C831.34 162.073 832.146 162.751 832.721 163.632C833.303 164.506 833.595 165.543 833.595 166.743C833.595 167.553 833.463 168.277 833.2 168.916C832.945 169.555 832.579 170.124 832.103 170.621C831.627 171.118 831.063 171.562 830.409 171.952C829.834 172.308 829.362 172.677 828.992 173.06C828.63 173.444 828.36 173.895 828.183 174.413C828.012 174.925 827.923 175.557 827.916 176.31V176.587H824.369ZM826.222 183.234C825.583 183.234 825.033 183.007 824.571 182.553C824.11 182.098 823.879 181.544 823.879 180.891C823.879 180.251 824.11 179.705 824.571 179.25C825.033 178.795 825.583 178.568 826.222 178.568C826.855 178.568 827.401 178.795 827.863 179.25C828.332 179.705 828.566 180.251 828.566 180.891C828.566 181.324 828.456 181.718 828.236 182.073C828.023 182.428 827.739 182.712 827.384 182.925C827.036 183.131 826.649 183.234 826.222 183.234Z" fill="black"/>
<ellipse cx="42" cy="356.5" rx="42" ry="41.5" fill="#EDC806"/>
<path d="M33.3572 368.234C32.7109 368.234 32.157 368.007 31.6953 367.553C31.2337 367.098 31.0064 366.544 31.0135 365.891C31.0064 365.251 31.2337 364.705 31.6953 364.25C32.157 363.795 32.7109 363.568 33.3572 363.568C33.9822 363.568 34.5256 363.795 34.9872 364.25C35.456 364.705 35.6939 365.251 35.701 365.891C35.6939 366.324 35.5803 366.718 35.3601 367.073C35.147 367.428 34.8629 367.712 34.5078 367.925C34.1598 368.131 33.7763 368.234 33.3572 368.234ZM33.3572 356.558C32.7109 356.558 32.157 356.331 31.6953 355.876C31.2337 355.415 31.0064 354.861 31.0135 354.214C31.0064 353.575 31.2337 353.028 31.6953 352.574C32.157 352.112 32.7109 351.881 33.3572 351.881C33.9822 351.881 34.5256 352.112 34.9872 352.574C35.456 353.028 35.6939 353.575 35.701 354.214C35.6939 354.641 35.5803 355.031 35.3601 355.386C35.147 355.741 34.8629 356.026 34.5078 356.239C34.1598 356.452 33.7763 356.558 33.3572 356.558ZM46.8205 368.32C45.2225 368.32 43.8375 367.968 42.6657 367.265C41.4938 366.562 40.5847 365.578 39.9384 364.314C39.2992 363.05 38.9796 361.572 38.9796 359.882C38.9796 358.192 39.2992 356.711 39.9384 355.44C40.5847 354.168 41.4938 353.181 42.6657 352.478C43.8375 351.775 45.2225 351.423 46.8205 351.423C48.4185 351.423 49.8034 351.775 50.9753 352.478C52.1472 353.181 53.0527 354.168 53.6919 355.44C54.3382 356.711 54.6614 358.192 54.6614 359.882C54.6614 361.572 54.3382 363.05 53.6919 364.314C53.0527 365.578 52.1472 366.562 50.9753 367.265C49.8034 367.968 48.4185 368.32 46.8205 368.32ZM46.8418 365.23C47.7083 365.23 48.4327 364.992 49.0151 364.516C49.5975 364.033 50.0307 363.387 50.3148 362.577C50.606 361.768 50.7516 360.866 50.7516 359.871C50.7516 358.87 50.606 357.964 50.3148 357.155C50.0307 356.338 49.5975 355.688 49.0151 355.205C48.4327 354.722 47.7083 354.481 46.8418 354.481C45.954 354.481 45.2154 354.722 44.6259 355.205C44.0435 355.688 43.6067 356.338 43.3155 357.155C43.0314 357.964 42.8894 358.87 42.8894 359.871C42.8894 360.866 43.0314 361.768 43.3155 362.577C43.6067 363.387 44.0435 364.033 44.6259 364.516C45.2154 364.992 45.954 365.23 46.8418 365.23Z" fill="black"/>
<ellipse cx="822" cy="513.5" rx="42" ry="41.5" fill="#EDC806"/>
<path d="M815.357 525.234C814.711 525.234 814.157 525.007 813.695 524.553C813.234 524.098 813.006 523.544 813.013 522.891C813.006 522.251 813.234 521.705 813.695 521.25C814.157 520.795 814.711 520.568 815.357 520.568C815.982 520.568 816.526 520.795 816.987 521.25C817.456 521.705 817.694 522.251 817.701 522.891C817.694 523.324 817.58 523.718 817.36 524.073C817.147 524.428 816.863 524.712 816.508 524.925C816.16 525.131 815.776 525.234 815.357 525.234ZM815.357 513.558C814.711 513.558 814.157 513.331 813.695 512.876C813.234 512.415 813.006 511.861 813.013 511.214C813.006 510.575 813.234 510.028 813.695 509.574C814.157 509.112 814.711 508.881 815.357 508.881C815.982 508.881 816.526 509.112 816.987 509.574C817.456 510.028 817.694 510.575 817.701 511.214C817.694 511.641 817.58 512.031 817.36 512.386C817.147 512.741 816.863 513.026 816.508 513.239C816.16 513.452 815.776 513.558 815.357 513.558ZM822.642 516.104C822.642 513.441 822.993 510.994 823.696 508.764C824.406 506.527 825.461 504.46 826.86 502.564H830.493C829.953 503.267 829.449 504.13 828.98 505.153C828.512 506.168 828.103 507.283 827.755 508.498C827.414 509.705 827.144 510.959 826.945 512.259C826.754 513.558 826.658 514.84 826.658 516.104C826.658 517.788 826.825 519.492 827.159 521.218C827.499 522.944 827.958 524.542 828.533 526.012C829.115 527.489 829.769 528.697 830.493 529.634H826.86C825.461 527.738 824.406 525.675 823.696 523.445C822.993 521.207 822.642 518.761 822.642 516.104Z" fill="black"/>
<path d="M67.8035 277.943H478V167H24V277.943H35.9432H36.9432V278.943V300.042L67.2172 278.133L67.4796 277.943H67.8035Z" fill="white" stroke="black" stroke-width="2"/>
<path d="M79.6744 205.816C79.5915 205.041 79.2423 204.437 78.6268 204.005C78.0172 203.573 77.2241 203.357 76.2475 203.357C75.561 203.357 74.9721 203.461 74.4808 203.668C73.9896 203.875 73.6138 204.156 73.3533 204.511C73.0929 204.866 72.9598 205.272 72.9538 205.728C72.9538 206.106 73.0397 206.435 73.2113 206.713C73.3888 206.991 73.6286 207.228 73.9304 207.423C74.2322 207.613 74.5666 207.772 74.9336 207.903C75.3005 208.033 75.6705 208.142 76.0433 208.231L77.7479 208.657C78.4344 208.817 79.0943 209.033 79.7276 209.305C80.3668 209.578 80.938 209.921 81.4411 210.335C81.95 210.75 82.3525 211.25 82.6484 211.836C82.9444 212.422 83.0923 213.108 83.0923 213.895C83.0923 214.961 82.8201 215.899 82.2756 216.71C81.7311 217.514 80.9439 218.145 79.9141 218.6C78.8902 219.05 77.6502 219.275 76.1942 219.275C74.7797 219.275 73.5516 219.056 72.5099 218.618C71.4742 218.18 70.6634 217.541 70.0774 216.701C69.4974 215.86 69.1837 214.836 69.1364 213.629H72.3768C72.4241 214.262 72.6194 214.789 72.9627 215.209C73.306 215.629 73.7528 215.943 74.3033 216.15C74.8596 216.357 75.4811 216.461 76.1676 216.461C76.8838 216.461 77.5111 216.354 78.0497 216.141C78.5942 215.922 79.0204 215.621 79.3281 215.236C79.6359 214.845 79.7927 214.389 79.7987 213.869C79.7927 213.395 79.6536 213.004 79.3814 212.697C79.1091 212.383 78.7274 212.123 78.2362 211.915C77.7508 211.702 77.1826 211.513 76.5316 211.347L74.4631 210.815C72.9657 210.43 71.782 209.847 70.9119 209.066C70.0478 208.279 69.6158 207.234 69.6158 205.932C69.6158 204.861 69.9058 203.922 70.4858 203.118C71.0717 202.313 71.8678 201.688 72.8739 201.244C73.8801 200.795 75.0194 200.57 76.2919 200.57C77.5822 200.57 78.7126 200.795 79.6832 201.244C80.6598 201.688 81.4263 202.307 81.9826 203.1C82.5389 203.887 82.826 204.792 82.8438 205.816H79.6744ZM92.6959 205.364V207.849H84.8568V205.364H92.6959ZM86.7922 202.097H90.0059V214.898C90.0059 215.33 90.0711 215.662 90.2013 215.893C90.3374 216.118 90.5149 216.272 90.7339 216.354C90.9529 216.437 91.1956 216.479 91.4619 216.479C91.6631 216.479 91.8466 216.464 92.0123 216.434C92.184 216.405 92.3142 216.378 92.403 216.354L92.9445 218.867C92.7729 218.926 92.5273 218.991 92.2077 219.062C91.894 219.133 91.5093 219.175 91.0535 219.186C90.2486 219.21 89.5236 219.089 88.8785 218.822C88.2333 218.55 87.7214 218.13 87.3426 217.562C86.9697 216.994 86.7863 216.283 86.7922 215.431V202.097ZM99.3077 219.275C98.4436 219.275 97.6653 219.121 96.9728 218.814C96.2863 218.5 95.7418 218.038 95.3393 217.429C94.9428 216.819 94.7445 216.067 94.7445 215.174C94.7445 214.404 94.8865 213.768 95.1706 213.265C95.4547 212.762 95.8424 212.359 96.3336 212.058C96.8249 211.756 97.3783 211.528 97.9938 211.374C98.6152 211.214 99.2574 211.099 99.9203 211.028C100.719 210.945 101.367 210.871 101.865 210.806C102.362 210.735 102.723 210.628 102.948 210.486C103.178 210.338 103.294 210.11 103.294 209.803V209.749C103.294 209.08 103.096 208.563 102.699 208.196C102.302 207.829 101.731 207.645 100.986 207.645C100.198 207.645 99.574 207.817 99.1124 208.16C98.6567 208.503 98.3489 208.909 98.1891 209.376L95.1884 208.95C95.4251 208.122 95.8158 207.429 96.3603 206.873C96.9048 206.311 97.5706 205.89 98.3578 205.612C99.1449 205.328 100.015 205.186 100.968 205.186C101.625 205.186 102.279 205.263 102.93 205.417C103.581 205.571 104.176 205.825 104.714 206.18C105.253 206.53 105.685 207.006 106.01 207.61C106.342 208.213 106.508 208.968 106.508 209.874V219H103.418V217.127H103.312C103.116 217.506 102.841 217.861 102.486 218.192C102.137 218.518 101.696 218.781 101.163 218.982C100.636 219.178 100.018 219.275 99.3077 219.275ZM100.142 216.914C100.787 216.914 101.347 216.786 101.82 216.532C102.294 216.272 102.658 215.928 102.912 215.502C103.173 215.076 103.303 214.611 103.303 214.108V212.501C103.202 212.584 103.03 212.661 102.788 212.732C102.551 212.803 102.285 212.865 101.989 212.919C101.693 212.972 101.4 213.019 101.11 213.061C100.82 213.102 100.568 213.138 100.355 213.167C99.8759 213.232 99.4468 213.339 99.068 213.487C98.6892 213.635 98.3903 213.842 98.1713 214.108C97.9524 214.369 97.8429 214.706 97.8429 215.12C97.8429 215.712 98.0589 216.159 98.4909 216.461C98.923 216.763 99.4734 216.914 100.142 216.914ZM115.687 219.266C114.326 219.266 113.157 218.967 112.181 218.37C111.21 217.772 110.461 216.946 109.934 215.893C109.414 214.833 109.153 213.614 109.153 212.235C109.153 210.85 109.42 209.628 109.952 208.569C110.485 207.503 111.237 206.675 112.207 206.083C113.184 205.485 114.338 205.186 115.67 205.186C116.776 205.186 117.756 205.39 118.608 205.799C119.466 206.201 120.15 206.772 120.659 207.512C121.168 208.246 121.458 209.104 121.529 210.087H118.457C118.333 209.43 118.037 208.882 117.569 208.444C117.108 208 116.489 207.778 115.714 207.778C115.057 207.778 114.48 207.956 113.983 208.311C113.486 208.66 113.098 209.163 112.82 209.82C112.548 210.477 112.411 211.264 112.411 212.182C112.411 213.111 112.548 213.91 112.82 214.579C113.092 215.242 113.474 215.754 113.965 216.115C114.462 216.47 115.045 216.647 115.714 216.647C116.187 216.647 116.611 216.559 116.983 216.381C117.362 216.198 117.679 215.934 117.933 215.591C118.188 215.248 118.363 214.83 118.457 214.339H121.529C121.452 215.304 121.168 216.159 120.677 216.905C120.185 217.645 119.517 218.225 118.67 218.645C117.824 219.059 116.83 219.266 115.687 219.266ZM127.098 214.721L127.089 210.841H127.604L132.504 205.364H136.259L130.231 212.075H129.566L127.098 214.721ZM124.168 219V200.818H127.382V219H124.168ZM132.726 219L128.287 212.794L130.453 210.531L136.57 219H132.726ZM149.151 201.725H151.776V204.325C151.776 209.55 149.576 214.875 145.326 216.875L143.451 214.25C147.276 212.45 149.151 208.125 149.151 204.325V201.725ZM149.851 201.725H152.476V204.325C152.476 207.825 154.276 211.925 158.076 213.675L156.251 216.3C152.001 214.325 149.851 209.25 149.851 204.325V201.725ZM144.351 200.3H157.051V203.025H144.351V200.3ZM158.751 198.075H162.101V221.225H158.751V198.075ZM161.351 206.9H165.451V209.65H161.351V206.9ZM172.274 211.575H175.524V217.025H172.274V211.575ZM179.599 211.55H182.849V217.025H179.599V211.55ZM166.974 215.975H187.924V218.675H166.974V215.975ZM169.324 199.575H185.574V207.25H172.674V211.175H169.374V204.65H182.274V202.2H169.324V199.575ZM169.374 209.775H186.099V212.45H169.374V209.775ZM192.347 199.425H206.872V202.05H192.347V199.425ZM189.972 209.275H210.897V211.95H189.972V209.275ZM198.647 211.15H201.997V221.25H198.647V211.15ZM205.172 199.425H208.447V201.475C208.447 203.975 208.447 206.775 207.547 210.875L204.272 210.5C205.172 206.625 205.172 203.875 205.172 201.475V199.425ZM212.97 215.85H233.92V218.55H212.97V215.85ZM221.77 210.725H225.095V216.6H221.77V210.725ZM221.67 201.1H224.47V201.925C224.47 206.8 220.97 210.675 215.07 211.75L213.77 209.125C218.92 208.325 221.67 205.125 221.67 201.925V201.1ZM222.345 201.1H225.145V201.925C225.145 205.125 227.895 208.225 233.17 209L231.895 211.625C225.895 210.575 222.345 206.8 222.345 201.925V201.1ZM214.695 199.825H232.12V202.475H214.695V199.825ZM235.943 208.45H256.918V210.875H235.943V208.45ZM238.293 212.025H254.418V217.525H241.643V219.5H238.343V215.425H251.143V214.275H238.293V212.025ZM238.343 218.8H255.068V221.05H238.343V218.8ZM238.518 198.475H254.368V203.925H241.843V205.825H238.543V201.85H251.093V200.7H238.518V198.475ZM238.543 205.125H254.793V207.375H238.543V205.125ZM271.493 199.675C274.943 199.675 277.468 202.875 277.468 207.925C277.468 213.025 274.943 216.225 271.493 216.225C268.018 216.225 265.518 213.025 265.518 207.925C265.518 202.875 268.018 199.675 271.493 199.675ZM271.493 202.7C269.818 202.7 268.693 204.525 268.693 207.925C268.693 211.375 269.818 213.225 271.493 213.225C273.193 213.225 274.293 211.375 274.293 207.925C274.293 204.525 273.193 202.7 271.493 202.7ZM281.268 198.05H284.568V221.275H281.268V198.05ZM276.493 206.4H282.668V209.075H276.493V206.4ZM291.041 211.55H308.041V214.05H291.041V211.55ZM299.516 214.75C303.766 214.75 306.291 215.925 306.291 218.025C306.291 220.1 303.766 221.25 299.516 221.25C295.291 221.25 292.741 220.1 292.741 218.025C292.741 215.925 295.291 214.75 299.516 214.75ZM299.516 217.025C297.441 217.025 296.291 217.3 296.291 218.025C296.291 218.725 297.441 219.025 299.516 219.025C301.591 219.025 302.716 218.725 302.716 218.025C302.716 217.3 301.591 217.025 299.516 217.025ZM297.891 209.75H301.216V213.175H297.891V209.75ZM288.466 206.4H289.641C291.541 206.4 292.966 206.35 294.741 206L294.991 208.575C293.091 208.95 291.641 208.975 289.641 208.975H288.466V206.4ZM288.466 199H294.516V201.55H291.741V208.25H288.466V199ZM295.591 206.4H296.841C299.766 206.4 301.041 206.35 302.591 205.975L302.816 208.55C301.241 208.925 299.891 208.975 296.841 208.975H295.591V206.4ZM295.591 199H302.041V201.55H298.866V208.25H295.591V199ZM304.441 198.075H307.741V210.4H304.441V198.075ZM301.441 202.55H306.316V205.025H301.441V202.55ZM327.914 198.075H331.089V221.225H327.914V198.075ZM318.739 206.95H323.689V209.575H318.739V206.95ZM323.039 198.575H326.139V220.2H323.039V198.575ZM317.989 200.8H321.189C321.189 207.4 319.214 212.65 312.714 216.425L310.839 214.1C316.114 210.925 317.989 207.075 317.989 201.475V200.8ZM312.139 200.8H319.039V203.45H312.139V200.8ZM345.538 199.85H348.238V203.225C348.238 208.95 346.238 214.325 341.863 216.475L339.863 213.8C343.763 211.975 345.538 207.525 345.538 203.225V199.85ZM346.213 199.85H348.863V203.225C348.863 207.375 350.513 211.6 354.213 213.4L352.213 216.05C348.038 213.925 346.213 208.775 346.213 203.225V199.85ZM355.138 198.075H358.488V221.225H355.138V198.075ZM357.738 206.975H361.838V209.75H357.738V206.975ZM368.036 205.825H371.361V210.075H368.036V205.825ZM376.186 205.825H379.486V210.075H376.186V205.825ZM363.336 209.05H384.261V211.675H363.336V209.05ZM373.761 212.85C378.761 212.85 381.786 214.35 381.786 217.025C381.786 219.725 378.761 221.225 373.761 221.225C368.736 221.225 365.711 219.725 365.711 217.025C365.711 214.35 368.736 212.85 373.761 212.85ZM373.761 215.35C370.661 215.35 369.086 215.875 369.086 217.025C369.086 218.2 370.661 218.725 373.761 218.725C376.861 218.725 378.436 218.2 378.436 217.025C378.436 215.875 376.861 215.35 373.761 215.35ZM373.811 198.4C378.911 198.4 382.186 200.1 382.186 202.875C382.186 205.625 378.911 207.275 373.811 207.275C368.686 207.275 365.436 205.625 365.436 202.875C365.436 200.1 368.686 198.4 373.811 198.4ZM373.811 200.95C370.636 200.95 368.861 201.575 368.861 202.875C368.861 204.15 370.636 204.775 373.811 204.775C376.986 204.775 378.761 204.15 378.761 202.875C378.761 201.575 376.986 200.95 373.811 200.95ZM386.309 201.55H397.384V204.2H386.309V201.55ZM391.884 205.225C394.834 205.225 396.959 207.5 396.959 210.75C396.959 213.975 394.834 216.25 391.884 216.25C388.959 216.25 386.809 213.975 386.809 210.75C386.809 207.5 388.959 205.225 391.884 205.225ZM391.884 208C390.634 208 389.759 209 389.759 210.75C389.759 212.5 390.634 213.475 391.884 213.475C393.134 213.475 394.034 212.5 394.034 210.75C394.034 209 393.134 208 391.884 208ZM403.059 198.075H406.234V221.225H403.059V198.075ZM400.284 207.475H404.109V210.15H400.284V207.475ZM398.209 198.5H401.309V220.25H398.209V198.5ZM390.259 198.7H393.534V203.225H390.259V198.7ZM415.532 199.675C419.057 199.675 421.607 202.875 421.607 207.925C421.607 213.025 419.057 216.225 415.532 216.225C412.007 216.225 409.457 213.025 409.457 207.925C409.457 202.875 412.007 199.675 415.532 199.675ZM415.532 202.7C413.807 202.7 412.657 204.525 412.657 207.925C412.657 211.375 413.807 213.225 415.532 213.225C417.257 213.225 418.432 211.375 418.432 207.925C418.432 204.525 417.257 202.7 415.532 202.7ZM426.582 203.45H430.657V206.2H426.582V203.45ZM426.582 210.25H430.657V212.975H426.582V210.25ZM424.132 198.075H427.482V221.225H424.132V198.075ZM74.1 229.825H76.8V231.2C76.8 235.325 74.7 238.975 70.175 240.25L68.575 237.65C72.45 236.55 74.1 233.85 74.1 231.2V229.825ZM74.775 229.825H77.475V231.2C77.475 233.625 79.075 236.125 82.825 237.15L81.275 239.75C76.875 238.525 74.775 235.05 74.775 231.2V229.825ZM69.475 229.1H82V231.75H69.475V229.1ZM83.9 228.075H87.225V239.9H83.9V228.075ZM85.875 232.6H90.275V235.3H85.875V232.6ZM71.925 240.825H87.225V247.025H75.275V249.95H71.975V244.675H83.95V243.325H71.925V240.825ZM71.975 248.5H87.9V251H71.975V248.5ZM103.399 229.85H106.099V233.225C106.099 238.95 104.099 244.325 99.7242 246.475L97.7242 243.8C101.624 241.975 103.399 237.525 103.399 233.225V229.85ZM104.074 229.85H106.724V233.225C106.724 237.375 108.374 241.6 112.074 243.4L110.074 246.05C105.899 243.925 104.074 238.775 104.074 233.225V229.85ZM112.999 228.075H116.349V251.225H112.999V228.075ZM115.599 236.975H119.699V239.75H115.599V236.975ZM125.897 235.825H129.222V240.075H125.897V235.825ZM134.047 235.825H137.347V240.075H134.047V235.825ZM121.197 239.05H142.122V241.675H121.197V239.05ZM131.622 242.85C136.622 242.85 139.647 244.35 139.647 247.025C139.647 249.725 136.622 251.225 131.622 251.225C126.597 251.225 123.572 249.725 123.572 247.025C123.572 244.35 126.597 242.85 131.622 242.85ZM131.622 245.35C128.522 245.35 126.947 245.875 126.947 247.025C126.947 248.2 128.522 248.725 131.622 248.725C134.722 248.725 136.297 248.2 136.297 247.025C136.297 245.875 134.722 245.35 131.622 245.35ZM131.672 228.4C136.772 228.4 140.047 230.1 140.047 232.875C140.047 235.625 136.772 237.275 131.672 237.275C126.547 237.275 123.297 235.625 123.297 232.875C123.297 230.1 126.547 228.4 131.672 228.4ZM131.672 230.95C128.497 230.95 126.722 231.575 126.722 232.875C126.722 234.15 128.497 234.775 131.672 234.775C134.847 234.775 136.622 234.15 136.622 232.875C136.622 231.575 134.847 230.95 131.672 230.95ZM160.77 228.1H163.92V242.325H160.77V228.1ZM157.945 234H161.645V236.675H157.945V234ZM155.995 228.4H159.095V242.1H155.995V228.4ZM144.095 230.3H155.32V232.875H144.095V230.3ZM149.745 233.575C152.645 233.575 154.745 235.225 154.745 237.625C154.745 240.025 152.645 241.675 149.745 241.675C146.845 241.675 144.745 240.025 144.745 237.625C144.745 235.225 146.845 233.575 149.745 233.575ZM149.745 235.975C148.52 235.975 147.695 236.55 147.695 237.625C147.695 238.7 148.52 239.3 149.745 239.3C150.945 239.3 151.77 238.7 151.77 237.625C151.77 236.55 150.945 235.975 149.745 235.975ZM148.07 228.225H151.345V232.125H148.07V228.225ZM149.77 243.075H152.27V243.525C152.27 246.8 150.67 249.775 147.02 250.95L145.495 248.5C148.47 247.625 149.77 245.55 149.77 243.525V243.075ZM150.645 243.075H153.02V243.525C153.02 245.575 154.12 247.7 156.895 248.725L155.57 251.175C151.97 249.925 150.645 246.7 150.645 243.525V243.075ZM158.12 243.075H160.495V243.525C160.495 246.5 159.145 249.875 155.57 251.175L154.27 248.725C156.97 247.6 158.12 245.4 158.12 243.525V243.075ZM158.945 243.075H161.42V243.525C161.42 245.675 162.695 247.7 165.72 248.5L164.17 250.95C160.47 249.825 158.945 246.925 158.945 243.525V243.075ZM181.993 228.05H185.343V251.275H181.993V228.05ZM184.593 236.625H188.693V239.35H184.593V236.625ZM168.093 242.95H170.043C173.943 242.95 177.018 242.825 180.418 242.225L180.743 244.975C177.243 245.6 174.068 245.7 170.043 245.7H168.093V242.95ZM168.093 230.2H178.893V232.875H171.393V244.275H168.093V230.2ZM196.418 245.8H217.368V248.525H196.418V245.8ZM205.118 240.65H208.418V246.525H205.118V240.65ZM204.993 229.35H207.893V231.025C207.893 235.95 204.318 240.3 198.268 241.4L196.893 238.625C202.168 237.775 204.993 234.225 204.993 231.025V229.35ZM205.643 229.35H208.543V231.025C208.543 234.3 211.368 237.775 216.668 238.625L215.293 241.4C209.218 240.275 205.643 236.025 205.643 231.025V229.35ZM219.391 239.5H240.341V242.15H219.391V239.5ZM228.466 241.175H231.816V246.05H228.466V241.175ZM221.966 229.05H237.691V237.65H221.966V229.05ZM234.416 231.65H225.216V235.05H234.416V231.65ZM221.816 248.175H238.041V250.825H221.816V248.175ZM221.816 244.1H225.116V249.05H221.816V244.1ZM258.264 228.05H261.614V251.275H258.264V228.05ZM249.139 229.675C252.639 229.675 255.214 232.875 255.214 237.925C255.214 243.025 252.639 246.225 249.139 246.225C245.639 246.225 243.064 243.025 243.064 237.925C243.064 232.875 245.639 229.675 249.139 229.675ZM249.139 232.7C247.414 232.7 246.239 234.525 246.239 237.925C246.239 241.375 247.414 243.225 249.139 243.225C250.864 243.225 252.014 241.375 252.014 237.925C252.014 234.525 250.864 232.7 249.139 232.7ZM286.488 228.075H289.813V239.5H286.488V228.075ZM288.888 232.375H292.888V235.1H288.888V232.375ZM272.513 229.075H275.838V238.05H272.513V229.075ZM272.513 236.15H274.463C277.563 236.15 280.988 235.925 284.613 235.225L284.988 237.925C281.238 238.675 277.713 238.875 274.463 238.875H272.513V236.15ZM274.513 240.45H289.813V246.875H277.888V249.6H274.563V244.4H286.488V243.05H274.513V240.45ZM274.563 248.35H290.488V250.975H274.563V248.35ZM309.661 228.075H312.986V251.225H309.661V228.075ZM311.961 237.125H315.986V239.875H311.961V237.125ZM298.311 230.425H301.411C301.411 236.85 300.811 241.775 296.711 246.375L294.111 244.5C297.686 240.55 298.311 236.7 298.311 230.825V230.425ZM295.136 230.425H299.611V233.125H295.136V230.425ZM304.686 230.425H307.786C307.786 237.15 307.236 242.825 303.211 247.85L300.611 246C304.111 241.575 304.686 237.125 304.686 230.8V230.425ZM302.186 230.425H306.061V233.125H302.186V230.425ZM322.209 239.825H325.509V246.325H322.209V239.825ZM330.609 239.825H333.934V246.325H330.609V239.825ZM317.609 245.85H338.559V248.55H317.609V245.85ZM328.059 229.2C333.034 229.2 336.709 231.65 336.709 235.425C336.709 239.2 333.034 241.625 328.059 241.625C323.059 241.625 319.409 239.2 319.409 235.425C319.409 231.65 323.059 229.2 328.059 229.2ZM328.059 231.8C324.834 231.8 322.684 233.125 322.684 235.425C322.684 237.7 324.834 239.05 328.059 239.05C331.284 239.05 333.434 237.7 333.434 235.425C333.434 233.125 331.284 231.8 328.059 231.8ZM344.305 243.656V243.425C344.311 242.353 344.412 241.501 344.607 240.868C344.808 240.235 345.092 239.726 345.459 239.341C345.826 238.95 346.273 238.592 346.8 238.267C347.161 238.042 347.483 237.796 347.767 237.53C348.057 237.258 348.285 236.956 348.451 236.624C348.617 236.287 348.7 235.911 348.7 235.497C348.7 235.029 348.59 234.624 348.371 234.281C348.152 233.937 347.856 233.671 347.483 233.482C347.116 233.292 346.705 233.197 346.249 233.197C345.829 233.197 345.43 233.289 345.051 233.473C344.678 233.65 344.367 233.922 344.119 234.289C343.876 234.65 343.74 235.109 343.71 235.665H340.55C340.579 234.541 340.852 233.6 341.366 232.842C341.887 232.085 342.574 231.517 343.426 231.138C344.284 230.759 345.231 230.57 346.267 230.57C347.397 230.57 348.392 230.768 349.25 231.164C350.114 231.561 350.786 232.126 351.265 232.86C351.751 233.588 351.993 234.452 351.993 235.452C351.993 236.127 351.884 236.731 351.665 237.263C351.452 237.796 351.147 238.27 350.75 238.684C350.354 239.098 349.883 239.468 349.339 239.794C348.859 240.09 348.466 240.397 348.158 240.717C347.856 241.037 347.631 241.412 347.483 241.844C347.341 242.271 347.267 242.797 347.261 243.425V243.656H344.305ZM345.85 249.195C345.317 249.195 344.858 249.006 344.474 248.627C344.089 248.248 343.897 247.787 343.897 247.242C343.897 246.71 344.089 246.254 344.474 245.875C344.858 245.496 345.317 245.307 345.85 245.307C346.377 245.307 346.832 245.496 347.217 245.875C347.608 246.254 347.803 246.71 347.803 247.242C347.803 247.603 347.711 247.932 347.528 248.228C347.35 248.524 347.113 248.76 346.817 248.938C346.527 249.109 346.205 249.195 345.85 249.195Z" fill="black"/>
<path d="M745.88 453.943H241V343H800V453.943H785.076H784.076V454.943V476.252L746.387 454.082L746.152 453.943H745.88Z" fill="white" stroke="black" stroke-width="2"/>
<path d="M265.15 373.025H279.825V375.7H265.15V373.025ZM263.025 388.75H283.95V391.45H263.025V388.75ZM270.425 380.8H273.75V390.075H270.425V380.8ZM278.625 373.025H281.95V375.25C281.95 378.15 281.95 381.4 281.025 386.35L277.7 385.975C278.625 381.375 278.625 378.025 278.625 375.25V373.025ZM294.723 371.75H297.648V372.825C297.648 377.275 294.148 381.05 288.073 381.95L286.773 379.275C292.098 378.575 294.723 375.55 294.723 372.825V371.75ZM295.348 371.75H298.248V372.825C298.248 375.525 300.898 378.575 306.198 379.275L304.923 381.95C298.848 381.05 295.348 377.275 295.348 372.825V371.75ZM294.748 385.75H298.048V394.225H294.748V385.75ZM286.023 383.65H306.948V386.35H286.023V383.65ZM324.896 371.075H328.246V384.05H324.896V371.075ZM310.321 372.4H313.621V381.95H310.321V372.4ZM310.321 380.2H312.321C316.346 380.2 319.621 379.975 323.021 379.25L323.421 381.925C319.896 382.7 316.471 382.95 312.321 382.95H310.321V380.2ZM312.846 385.025H328.246V393.975H312.846V385.025ZM324.971 387.625H316.096V391.35H324.971V387.625ZM332.019 380.05H352.969V382.675H332.019V380.05ZM334.594 376.2H350.494V378.8H334.594V376.2ZM334.594 371.5H350.294V374.15H337.894V378.45H334.594V371.5ZM334.394 383.975H350.394V390.1H337.694V392.1H334.419V387.75H347.119V386.475H334.394V383.975ZM334.419 391.5H350.994V394.05H334.419V391.5ZM361.218 378.6H382.143V381.275H361.218V378.6ZM366.018 380.7H369.343V390.75H366.018V380.7ZM373.868 380.7H377.193V390.75H373.868V380.7ZM384.216 378.6H405.141V381.275H384.216V378.6ZM389.016 380.7H392.341V390.75H389.016V380.7ZM396.866 380.7H400.191V390.75H396.866V380.7ZM415.841 381.4H432.116V384.05H415.841V381.4ZM413.416 388.9H434.366V391.625H413.416V388.9ZM422.191 382.6H425.516V389.775H422.191V382.6ZM415.841 372.65H431.941V375.325H419.166V382.55H415.841V372.65ZM441.589 382.8H444.914V388.275H441.589V382.8ZM443.214 372.425C446.789 372.425 449.514 374.8 449.514 378.125C449.514 381.45 446.789 383.825 443.214 383.825C439.614 383.825 436.914 381.45 436.914 378.125C436.914 374.8 439.614 372.425 443.214 372.425ZM443.214 375.25C441.464 375.25 440.164 376.3 440.164 378.125C440.164 379.925 441.464 381 443.214 381C444.964 381 446.264 379.925 446.264 378.125C446.264 376.3 444.964 375.25 443.214 375.25ZM451.339 371.075H454.664V394.225H451.339V371.075ZM453.639 380.125H457.714V382.9H453.639V380.125ZM436.539 389.625L436.139 386.95C440.139 386.925 445.539 386.95 450.139 386.325L450.389 388.75C445.589 389.65 440.439 389.65 436.539 389.625ZM467.962 373.65H470.837V374.325C470.837 378.4 467.512 381.725 461.637 382.525L460.412 379.925C465.512 379.3 467.962 376.7 467.962 374.325V373.65ZM468.912 373.65H471.787V374.325C471.787 376.7 474.237 379.3 479.337 379.925L478.137 382.525C472.237 381.725 468.912 378.4 468.912 374.325V373.65ZM468.137 385.75H471.437V394.25H468.137V385.75ZM459.412 383.85H480.337V386.5H459.412V383.85ZM461.262 372.25H478.437V374.875H461.262V372.25ZM491.51 378.85H495.335V381.55H491.51V378.85ZM486.56 373.075H489.11V376.975C489.11 382.225 487.66 387.35 483.96 389.625L481.96 387.125C485.36 385.025 486.56 380.9 486.56 376.975V373.075ZM487.285 373.075H489.785V376.825C489.785 380.6 490.76 384.45 493.91 386.5L492.11 389.1C488.435 386.825 487.285 381.825 487.285 376.825V373.075ZM499.11 371.075H502.285V394.225H499.11V371.075ZM494.41 371.425H497.51V393.175H494.41V371.425ZM510.008 382.825H513.308V389.325H510.008V382.825ZM518.408 382.825H521.733V389.325H518.408V382.825ZM505.408 388.85H526.358V391.55H505.408V388.85ZM515.858 372.2C520.833 372.2 524.508 374.65 524.508 378.425C524.508 382.2 520.833 384.625 515.858 384.625C510.858 384.625 507.208 382.2 507.208 378.425C507.208 374.65 510.858 372.2 515.858 372.2ZM515.858 374.8C512.633 374.8 510.483 376.125 510.483 378.425C510.483 380.7 512.633 382.05 515.858 382.05C519.083 382.05 521.233 380.7 521.233 378.425C521.233 376.125 519.083 374.8 515.858 374.8ZM266.865 414.01V422H263.651V408.364H266.723V410.681H266.883C267.196 409.917 267.697 409.311 268.383 408.861C269.076 408.411 269.931 408.186 270.949 408.186C271.89 408.186 272.71 408.387 273.408 408.79C274.112 409.192 274.657 409.775 275.042 410.539C275.432 411.302 275.625 412.228 275.619 413.317V422H272.405V413.815C272.405 412.903 272.168 412.19 271.695 411.675C271.227 411.16 270.579 410.903 269.75 410.903C269.188 410.903 268.688 411.027 268.25 411.276C267.818 411.518 267.478 411.87 267.229 412.332C266.986 412.794 266.865 413.353 266.865 414.01ZM284.834 422.266C283.502 422.266 282.348 421.973 281.371 421.387C280.395 420.801 279.637 419.982 279.099 418.928C278.566 417.875 278.3 416.644 278.3 415.235C278.3 413.826 278.566 412.592 279.099 411.533C279.637 410.474 280.395 409.651 281.371 409.065C282.348 408.479 283.502 408.186 284.834 408.186C286.165 408.186 287.32 408.479 288.296 409.065C289.273 409.651 290.027 410.474 290.56 411.533C291.099 412.592 291.368 413.826 291.368 415.235C291.368 416.644 291.099 417.875 290.56 418.928C290.027 419.982 289.273 420.801 288.296 421.387C287.32 421.973 286.165 422.266 284.834 422.266ZM284.852 419.692C285.574 419.692 286.177 419.493 286.663 419.097C287.148 418.694 287.509 418.156 287.746 417.481C287.988 416.806 288.11 416.055 288.11 415.226C288.11 414.392 287.988 413.637 287.746 412.962C287.509 412.282 287.148 411.74 286.663 411.338C286.177 410.935 285.574 410.734 284.852 410.734C284.112 410.734 283.496 410.935 283.005 411.338C282.52 411.74 282.156 412.282 281.913 412.962C281.676 413.637 281.558 414.392 281.558 415.226C281.558 416.055 281.676 416.806 281.913 417.481C282.156 418.156 282.52 418.694 283.005 419.097C283.496 419.493 284.112 419.692 284.852 419.692ZM300.905 408.364V410.849H293.066V408.364H300.905ZM295.001 405.097H298.215V417.898C298.215 418.33 298.28 418.662 298.41 418.893C298.546 419.118 298.724 419.272 298.943 419.354C299.162 419.437 299.405 419.479 299.671 419.479C299.872 419.479 300.056 419.464 300.221 419.434C300.393 419.405 300.523 419.378 300.612 419.354L301.153 421.867C300.982 421.926 300.736 421.991 300.417 422.062C300.103 422.133 299.718 422.175 299.263 422.186C298.458 422.21 297.733 422.089 297.087 421.822C296.442 421.55 295.93 421.13 295.552 420.562C295.179 419.994 294.995 419.283 295.001 418.431V405.097ZM311.419 413.104V415.75H303.233V413.104H311.419ZM318.013 414.01V422H314.799V408.364H317.87V410.681H318.03C318.344 409.917 318.844 409.311 319.531 408.861C320.223 408.411 321.078 408.186 322.096 408.186C323.037 408.186 323.857 408.387 324.555 408.79C325.26 409.192 325.804 409.775 326.189 410.539C326.58 411.302 326.772 412.228 326.766 413.317V422H323.552V413.815C323.552 412.903 323.316 412.19 322.842 411.675C322.374 411.16 321.726 410.903 320.898 410.903C320.336 410.903 319.835 411.027 319.397 411.276C318.965 411.518 318.625 411.87 318.377 412.332C318.134 412.794 318.013 413.353 318.013 414.01ZM338.725 416.265V408.364H341.938V422H338.822V419.576H338.68C338.372 420.34 337.866 420.964 337.162 421.45C336.464 421.935 335.602 422.178 334.579 422.178C333.685 422.178 332.895 421.979 332.208 421.583C331.528 421.18 330.995 420.597 330.61 419.834C330.225 419.064 330.033 418.135 330.033 417.046V408.364H333.247V416.549C333.247 417.413 333.484 418.1 333.957 418.609C334.431 419.118 335.052 419.372 335.821 419.372C336.295 419.372 336.754 419.257 337.198 419.026C337.641 418.795 338.005 418.452 338.29 417.996C338.58 417.534 338.725 416.957 338.725 416.265ZM348.457 403.818V422H345.243V403.818H348.457ZM354.975 403.818V422H351.762V403.818H354.975ZM364.481 427.114V408.364H367.642V410.619H367.828C367.994 410.287 368.228 409.935 368.53 409.562C368.831 409.183 369.24 408.861 369.755 408.594C370.27 408.322 370.927 408.186 371.726 408.186C372.779 408.186 373.729 408.455 374.575 408.994C375.428 409.527 376.102 410.317 376.6 411.364C377.103 412.406 377.354 413.684 377.354 415.2C377.354 416.697 377.109 417.969 376.617 419.017C376.126 420.065 375.457 420.864 374.611 421.414C373.765 421.964 372.806 422.24 371.735 422.24C370.953 422.24 370.305 422.109 369.79 421.849C369.275 421.589 368.861 421.275 368.547 420.908C368.24 420.535 368 420.183 367.828 419.852H367.695V427.114H364.481ZM367.633 415.182C367.633 416.064 367.757 416.836 368.006 417.499C368.26 418.162 368.624 418.68 369.098 419.053C369.577 419.42 370.157 419.603 370.838 419.603C371.548 419.603 372.143 419.414 372.622 419.035C373.102 418.65 373.463 418.126 373.705 417.463C373.954 416.795 374.078 416.034 374.078 415.182C374.078 414.335 373.957 413.584 373.714 412.927C373.472 412.27 373.111 411.755 372.631 411.382C372.152 411.009 371.554 410.823 370.838 410.823C370.151 410.823 369.568 411.003 369.089 411.364C368.61 411.725 368.246 412.231 367.997 412.882C367.754 413.533 367.633 414.3 367.633 415.182ZM380.106 422V408.364H383.222V410.636H383.365C383.613 409.849 384.039 409.243 384.643 408.816C385.253 408.384 385.948 408.168 386.729 408.168C386.907 408.168 387.105 408.177 387.324 408.195C387.549 408.207 387.735 408.228 387.883 408.257V411.213C387.747 411.166 387.531 411.125 387.235 411.089C386.945 411.048 386.664 411.027 386.392 411.027C385.806 411.027 385.279 411.154 384.812 411.409C384.35 411.657 383.986 412.004 383.72 412.447C383.453 412.891 383.32 413.403 383.32 413.983V422H380.106ZM395.405 422.266C394.073 422.266 392.919 421.973 391.943 421.387C390.966 420.801 390.209 419.982 389.67 418.928C389.137 417.875 388.871 416.644 388.871 415.235C388.871 413.826 389.137 412.592 389.67 411.533C390.209 410.474 390.966 409.651 391.943 409.065C392.919 408.479 394.073 408.186 395.405 408.186C396.737 408.186 397.891 408.479 398.867 409.065C399.844 409.651 400.599 410.474 401.131 411.533C401.67 412.592 401.939 413.826 401.939 415.235C401.939 416.644 401.67 417.875 401.131 418.928C400.599 419.982 399.844 420.801 398.867 421.387C397.891 421.973 396.737 422.266 395.405 422.266ZM395.423 419.692C396.145 419.692 396.749 419.493 397.234 419.097C397.719 418.694 398.08 418.156 398.317 417.481C398.56 416.806 398.681 416.055 398.681 415.226C398.681 414.392 398.56 413.637 398.317 412.962C398.08 412.282 397.719 411.74 397.234 411.338C396.749 410.935 396.145 410.734 395.423 410.734C394.683 410.734 394.068 410.935 393.576 411.338C393.091 411.74 392.727 412.282 392.484 412.962C392.248 413.637 392.129 414.392 392.129 415.226C392.129 416.055 392.248 416.806 392.484 417.481C392.727 418.156 393.091 418.694 393.576 419.097C394.068 419.493 394.683 419.692 395.423 419.692ZM404.667 427.114V408.364H407.827V410.619H408.014C408.18 410.287 408.413 409.935 408.715 409.562C409.017 409.183 409.425 408.861 409.94 408.594C410.455 408.322 411.112 408.186 411.911 408.186C412.965 408.186 413.915 408.455 414.761 408.994C415.613 409.527 416.288 410.317 416.785 411.364C417.288 412.406 417.54 413.684 417.54 415.2C417.54 416.697 417.294 417.969 416.803 419.017C416.312 420.065 415.643 420.864 414.797 421.414C413.95 421.964 412.991 422.24 411.92 422.24C411.139 422.24 410.491 422.109 409.976 421.849C409.461 421.589 409.047 421.275 408.733 420.908C408.425 420.535 408.185 420.183 408.014 419.852H407.881V427.114H404.667ZM407.819 415.182C407.819 416.064 407.943 416.836 408.191 417.499C408.446 418.162 408.81 418.68 409.283 419.053C409.763 419.42 410.343 419.603 411.023 419.603C411.734 419.603 412.328 419.414 412.808 419.035C413.287 418.65 413.648 418.126 413.891 417.463C414.14 416.795 414.264 416.034 414.264 415.182C414.264 414.335 414.143 413.584 413.9 412.927C413.657 412.27 413.296 411.755 412.817 411.382C412.337 411.009 411.74 410.823 411.023 410.823C410.337 410.823 409.754 411.003 409.275 411.364C408.795 411.725 408.431 412.231 408.183 412.882C407.94 413.533 407.819 414.3 407.819 415.182ZM426.329 422.266C424.962 422.266 423.781 421.982 422.787 421.414C421.798 420.84 421.038 420.029 420.505 418.982C419.972 417.928 419.706 416.688 419.706 415.262C419.706 413.859 419.972 412.628 420.505 411.569C421.044 410.503 421.795 409.675 422.76 409.083C423.725 408.485 424.858 408.186 426.16 408.186C427.001 408.186 427.794 408.322 428.539 408.594C429.291 408.861 429.954 409.275 430.528 409.837C431.108 410.4 431.564 411.116 431.895 411.986C432.227 412.85 432.392 413.88 432.392 415.075V416.061H421.215V413.895H429.312C429.306 413.279 429.173 412.732 428.912 412.252C428.652 411.767 428.288 411.385 427.82 411.107C427.359 410.829 426.82 410.69 426.205 410.69C425.548 410.69 424.971 410.849 424.473 411.169C423.976 411.483 423.589 411.897 423.31 412.412C423.038 412.921 422.899 413.48 422.893 414.09V415.981C422.893 416.774 423.038 417.455 423.328 418.023C423.618 418.585 424.024 419.017 424.544 419.319C425.065 419.615 425.675 419.763 426.373 419.763C426.841 419.763 427.264 419.698 427.643 419.567C428.022 419.431 428.35 419.233 428.628 418.973C428.906 418.712 429.116 418.39 429.259 418.005L432.259 418.342C432.07 419.135 431.709 419.828 431.176 420.42C430.649 421.006 429.975 421.461 429.152 421.787C428.329 422.107 427.388 422.266 426.329 422.266ZM435.111 422V408.364H438.227V410.636H438.369C438.618 409.849 439.044 409.243 439.648 408.816C440.257 408.384 440.953 408.168 441.734 408.168C441.912 408.168 442.11 408.177 442.329 408.195C442.554 408.207 442.74 408.228 442.888 408.257V411.213C442.752 411.166 442.536 411.125 442.24 411.089C441.95 411.048 441.669 411.027 441.397 411.027C440.811 411.027 440.284 411.154 439.816 411.409C439.355 411.657 438.991 412.004 438.725 412.447C438.458 412.891 438.325 413.403 438.325 413.983V422H435.111ZM452.565 408.364V410.849H444.726V408.364H452.565ZM446.661 405.097H449.875V417.898C449.875 418.33 449.94 418.662 450.07 418.893C450.207 419.118 450.384 419.272 450.603 419.354C450.822 419.437 451.065 419.479 451.331 419.479C451.532 419.479 451.716 419.464 451.881 419.434C452.053 419.405 452.183 419.378 452.272 419.354L452.814 421.867C452.642 421.926 452.396 421.991 452.077 422.062C451.763 422.133 451.378 422.175 450.923 422.186C450.118 422.21 449.393 422.089 448.748 421.822C448.102 421.55 447.591 421.13 447.212 420.562C446.839 419.994 446.655 419.283 446.661 418.431V405.097ZM457.25 427.114C456.812 427.114 456.407 427.078 456.034 427.007C455.667 426.942 455.374 426.865 455.155 426.776L455.901 424.273C456.368 424.409 456.786 424.474 457.153 424.468C457.52 424.462 457.842 424.347 458.12 424.122C458.404 423.903 458.644 423.536 458.839 423.021L459.115 422.284L454.17 408.364H457.579L460.722 418.662H460.864L464.015 408.364H467.433L461.973 423.651C461.719 424.373 461.382 424.992 460.961 425.507C460.541 426.028 460.026 426.424 459.417 426.696C458.813 426.975 458.091 427.114 457.25 427.114ZM475.858 422V408.364H478.974V410.636H479.116C479.365 409.849 479.791 409.243 480.395 408.816C481.004 408.384 481.7 408.168 482.481 408.168C482.659 408.168 482.857 408.177 483.076 408.195C483.301 408.207 483.487 408.228 483.635 408.257V411.213C483.499 411.166 483.283 411.125 482.987 411.089C482.697 411.048 482.416 411.027 482.144 411.027C481.558 411.027 481.031 411.154 480.564 411.409C480.102 411.657 479.738 412.004 479.472 412.447C479.205 412.891 479.072 413.403 479.072 413.983V422H475.858ZM491.246 422.266C489.879 422.266 488.698 421.982 487.704 421.414C486.715 420.84 485.955 420.029 485.422 418.982C484.889 417.928 484.623 416.688 484.623 415.262C484.623 413.859 484.889 412.628 485.422 411.569C485.961 410.503 486.712 409.675 487.677 409.083C488.642 408.485 489.775 408.186 491.077 408.186C491.918 408.186 492.711 408.322 493.456 408.594C494.208 408.861 494.871 409.275 495.445 409.837C496.025 410.4 496.481 411.116 496.812 411.986C497.144 412.85 497.309 413.88 497.309 415.075V416.061H486.132V413.895H494.229C494.223 413.279 494.09 412.732 493.829 412.252C493.569 411.767 493.205 411.385 492.737 411.107C492.276 410.829 491.737 410.69 491.122 410.69C490.465 410.69 489.888 410.849 489.39 411.169C488.893 411.483 488.506 411.897 488.227 412.412C487.955 412.921 487.816 413.48 487.81 414.09V415.981C487.81 416.774 487.955 417.455 488.245 418.023C488.535 418.585 488.941 419.017 489.461 419.319C489.982 419.615 490.592 419.763 491.29 419.763C491.758 419.763 492.181 419.698 492.56 419.567C492.939 419.431 493.267 419.233 493.545 418.973C493.823 418.712 494.033 418.39 494.176 418.005L497.176 418.342C496.987 419.135 496.626 419.828 496.093 420.42C495.566 421.006 494.892 421.461 494.069 421.787C493.246 422.107 492.305 422.266 491.246 422.266ZM506.935 408.364V410.849H498.874V408.364H506.935ZM500.889 422V407.076C500.889 406.159 501.079 405.395 501.458 404.786C501.842 404.176 502.357 403.721 503.002 403.419C503.647 403.117 504.364 402.966 505.151 402.966C505.707 402.966 506.201 403.01 506.633 403.099C507.065 403.188 507.385 403.268 507.592 403.339L506.953 405.825C506.817 405.783 506.645 405.742 506.438 405.7C506.231 405.653 506 405.629 505.746 405.629C505.148 405.629 504.725 405.774 504.476 406.064C504.233 406.348 504.112 406.757 504.112 407.289V422H500.889ZM514.976 422.266C513.609 422.266 512.428 421.982 511.434 421.414C510.446 420.84 509.685 420.029 509.152 418.982C508.62 417.928 508.353 416.688 508.353 415.262C508.353 413.859 508.62 412.628 509.152 411.569C509.691 410.503 510.443 409.675 511.407 409.083C512.372 408.485 513.506 408.186 514.808 408.186C515.648 408.186 516.441 408.322 517.187 408.594C517.939 408.861 518.601 409.275 519.176 409.837C519.756 410.4 520.211 411.116 520.543 411.986C520.874 412.85 521.04 413.88 521.04 415.075V416.061H509.863V413.895H517.959C517.953 413.279 517.82 412.732 517.56 412.252C517.299 411.767 516.935 411.385 516.468 411.107C516.006 410.829 515.468 410.69 514.852 410.69C514.195 410.69 513.618 410.849 513.121 411.169C512.624 411.483 512.236 411.897 511.958 412.412C511.686 412.921 511.546 413.48 511.541 414.09V415.981C511.541 416.774 511.686 417.455 511.976 418.023C512.266 418.585 512.671 419.017 513.192 419.319C513.713 419.615 514.322 419.763 515.021 419.763C515.488 419.763 515.911 419.698 516.29 419.567C516.669 419.431 516.997 419.233 517.276 418.973C517.554 418.712 517.764 418.39 517.906 418.005L520.907 418.342C520.717 419.135 520.356 419.828 519.824 420.42C519.297 421.006 518.622 421.461 517.799 421.787C516.977 422.107 516.036 422.266 514.976 422.266ZM523.759 422V408.364H526.875V410.636H527.017C527.265 409.849 527.692 409.243 528.295 408.816C528.905 408.384 529.6 408.168 530.382 408.168C530.559 408.168 530.757 408.177 530.976 408.195C531.201 408.207 531.388 408.228 531.536 408.257V411.213C531.4 411.166 531.184 411.125 530.888 411.089C530.598 411.048 530.316 411.027 530.044 411.027C529.458 411.027 528.932 411.154 528.464 411.409C528.002 411.657 527.638 412.004 527.372 412.447C527.106 412.891 526.972 413.403 526.972 413.983V422H523.759ZM539.146 422.266C537.779 422.266 536.598 421.982 535.604 421.414C534.616 420.84 533.855 420.029 533.322 418.982C532.79 417.928 532.523 416.688 532.523 415.262C532.523 413.859 532.79 412.628 533.322 411.569C533.861 410.503 534.613 409.675 535.577 409.083C536.542 408.485 537.675 408.186 538.978 408.186C539.818 408.186 540.611 408.322 541.357 408.594C542.108 408.861 542.771 409.275 543.345 409.837C543.925 410.4 544.381 411.116 544.713 411.986C545.044 412.85 545.21 413.88 545.21 415.075V416.061H534.033V413.895H542.129C542.123 413.279 541.99 412.732 541.73 412.252C541.469 411.767 541.105 411.385 540.638 411.107C540.176 410.829 539.637 410.69 539.022 410.69C538.365 410.69 537.788 410.849 537.291 411.169C536.794 411.483 536.406 411.897 536.128 412.412C535.855 412.921 535.716 413.48 535.71 414.09V415.981C535.71 416.774 535.855 417.455 536.146 418.023C536.436 418.585 536.841 419.017 537.362 419.319C537.883 419.615 538.492 419.763 539.191 419.763C539.658 419.763 540.081 419.698 540.46 419.567C540.839 419.431 541.167 419.233 541.446 418.973C541.724 418.712 541.934 418.39 542.076 418.005L545.077 418.342C544.887 419.135 544.526 419.828 543.994 420.42C543.467 421.006 542.792 421.461 541.969 421.787C541.147 422.107 540.206 422.266 539.146 422.266ZM551.142 414.01V422H547.929V408.364H551V410.681H551.16C551.474 409.917 551.974 409.311 552.661 408.861C553.353 408.411 554.208 408.186 555.226 408.186C556.167 408.186 556.987 408.387 557.685 408.79C558.39 409.192 558.934 409.775 559.319 410.539C559.71 411.302 559.902 412.228 559.896 413.317V422H556.682V413.815C556.682 412.903 556.445 412.19 555.972 411.675C555.504 411.16 554.856 410.903 554.028 410.903C553.465 410.903 552.965 411.027 552.527 411.276C552.095 411.518 551.755 411.87 551.506 412.332C551.264 412.794 551.142 413.353 551.142 414.01ZM569.111 422.266C567.75 422.266 566.581 421.967 565.604 421.37C564.634 420.772 563.885 419.946 563.358 418.893C562.837 417.833 562.577 416.614 562.577 415.235C562.577 413.85 562.843 412.628 563.376 411.569C563.909 410.503 564.66 409.675 565.631 409.083C566.608 408.485 567.762 408.186 569.093 408.186C570.2 408.186 571.18 408.39 572.032 408.799C572.89 409.201 573.574 409.772 574.083 410.512C574.592 411.246 574.882 412.104 574.953 413.087H571.881C571.757 412.43 571.461 411.882 570.993 411.444C570.532 411 569.913 410.778 569.138 410.778C568.481 410.778 567.904 410.956 567.407 411.311C566.909 411.66 566.522 412.163 566.244 412.82C565.971 413.477 565.835 414.264 565.835 415.182C565.835 416.111 565.971 416.91 566.244 417.579C566.516 418.242 566.898 418.754 567.389 419.115C567.886 419.47 568.469 419.647 569.138 419.647C569.611 419.647 570.034 419.559 570.407 419.381C570.786 419.198 571.103 418.934 571.357 418.591C571.612 418.248 571.786 417.83 571.881 417.339H574.953C574.876 418.304 574.592 419.159 574.1 419.905C573.609 420.645 572.94 421.225 572.094 421.645C571.248 422.059 570.253 422.266 569.111 422.266ZM583.629 422.266C582.261 422.266 581.081 421.982 580.086 421.414C579.098 420.84 578.337 420.029 577.805 418.982C577.272 417.928 577.006 416.688 577.006 415.262C577.006 413.859 577.272 412.628 577.805 411.569C578.343 410.503 579.095 409.675 580.06 409.083C581.024 408.485 582.158 408.186 583.46 408.186C584.3 408.186 585.093 408.322 585.839 408.594C586.591 408.861 587.254 409.275 587.828 409.837C588.408 410.4 588.864 411.116 589.195 411.986C589.526 412.85 589.692 413.88 589.692 415.075V416.061H578.515V413.895H586.612C586.606 413.279 586.473 412.732 586.212 412.252C585.952 411.767 585.588 411.385 585.12 411.107C584.658 410.829 584.12 410.69 583.504 410.69C582.847 410.69 582.27 410.849 581.773 411.169C581.276 411.483 580.888 411.897 580.61 412.412C580.338 412.921 580.199 413.48 580.193 414.09V415.981C580.193 416.774 580.338 417.455 580.628 418.023C580.918 418.585 581.323 419.017 581.844 419.319C582.365 419.615 582.975 419.763 583.673 419.763C584.141 419.763 584.564 419.698 584.943 419.567C585.321 419.431 585.65 419.233 585.928 418.973C586.206 418.712 586.416 418.39 586.558 418.005L589.559 418.342C589.37 419.135 589.009 419.828 588.476 420.42C587.949 421.006 587.274 421.461 586.452 421.787C585.629 422.107 584.688 422.266 583.629 422.266ZM603.189 411.968L600.259 412.288C600.176 411.992 600.031 411.714 599.824 411.453C599.623 411.193 599.351 410.983 599.007 410.823C598.664 410.663 598.244 410.583 597.747 410.583C597.078 410.583 596.516 410.728 596.06 411.018C595.61 411.308 595.388 411.684 595.394 412.146C595.388 412.542 595.533 412.865 595.829 413.113C596.131 413.362 596.628 413.566 597.32 413.726L599.646 414.223C600.937 414.501 601.896 414.942 602.523 415.546C603.156 416.15 603.476 416.94 603.482 417.916C603.476 418.774 603.224 419.532 602.727 420.189C602.236 420.84 601.552 421.349 600.676 421.716C599.8 422.083 598.794 422.266 597.658 422.266C595.989 422.266 594.645 421.917 593.627 421.219C592.609 420.514 592.003 419.535 591.807 418.28L594.941 417.978C595.083 418.594 595.385 419.058 595.847 419.372C596.308 419.686 596.909 419.843 597.649 419.843C598.412 419.843 599.025 419.686 599.487 419.372C599.954 419.058 600.188 418.671 600.188 418.209C600.188 417.819 600.037 417.496 599.735 417.241C599.439 416.987 598.978 416.792 598.35 416.656L596.024 416.167C594.716 415.895 593.749 415.436 593.121 414.791C592.494 414.14 592.183 413.317 592.189 412.323C592.183 411.483 592.411 410.755 592.873 410.139C593.34 409.518 593.988 409.038 594.817 408.701C595.651 408.358 596.613 408.186 597.702 408.186C599.3 408.186 600.558 408.526 601.475 409.207C602.399 409.888 602.97 410.808 603.189 411.968ZM616.257 422.275C615.393 422.275 614.615 422.121 613.922 421.814C613.235 421.5 612.691 421.038 612.289 420.429C611.892 419.819 611.694 419.067 611.694 418.174C611.694 417.404 611.836 416.768 612.12 416.265C612.404 415.762 612.792 415.359 613.283 415.058C613.774 414.756 614.327 414.528 614.943 414.374C615.564 414.214 616.207 414.099 616.869 414.028C617.669 413.945 618.317 413.871 618.814 413.806C619.311 413.735 619.672 413.628 619.897 413.486C620.128 413.338 620.243 413.11 620.243 412.803V412.749C620.243 412.08 620.045 411.563 619.648 411.196C619.252 410.829 618.681 410.645 617.935 410.645C617.148 410.645 616.523 410.817 616.062 411.16C615.606 411.503 615.298 411.909 615.138 412.376L612.138 411.95C612.374 411.122 612.765 410.429 613.309 409.873C613.854 409.311 614.52 408.89 615.307 408.612C616.094 408.328 616.964 408.186 617.917 408.186C618.574 408.186 619.228 408.263 619.879 408.417C620.53 408.571 621.125 408.825 621.664 409.18C622.202 409.53 622.634 410.006 622.96 410.61C623.291 411.213 623.457 411.968 623.457 412.874V422H620.367V420.127H620.261C620.066 420.506 619.79 420.861 619.435 421.192C619.086 421.518 618.645 421.781 618.112 421.982C617.586 422.178 616.967 422.275 616.257 422.275ZM617.091 419.914C617.737 419.914 618.296 419.786 618.769 419.532C619.243 419.272 619.607 418.928 619.861 418.502C620.122 418.076 620.252 417.611 620.252 417.108V415.501C620.151 415.584 619.98 415.661 619.737 415.732C619.5 415.803 619.234 415.865 618.938 415.919C618.642 415.972 618.349 416.019 618.059 416.061C617.769 416.102 617.518 416.138 617.305 416.167C616.825 416.232 616.396 416.339 616.017 416.487C615.638 416.635 615.34 416.842 615.121 417.108C614.902 417.369 614.792 417.706 614.792 418.12C614.792 418.712 615.008 419.159 615.44 419.461C615.872 419.763 616.423 419.914 617.091 419.914ZM636.103 414.01V422H632.89V408.364H635.961V410.681H636.121C636.435 409.917 636.935 409.311 637.621 408.861C638.314 408.411 639.169 408.186 640.187 408.186C641.128 408.186 641.948 408.387 642.646 408.79C643.351 409.192 643.895 409.775 644.28 410.539C644.67 411.302 644.863 412.228 644.857 413.317V422H641.643V413.815C641.643 412.903 641.406 412.19 640.933 411.675C640.465 411.16 639.817 410.903 638.989 410.903C638.426 410.903 637.926 411.027 637.488 411.276C637.056 411.518 636.716 411.87 636.467 412.332C636.225 412.794 636.103 413.353 636.103 414.01ZM656.815 416.265V408.364H660.029V422H656.913V419.576H656.771C656.463 420.34 655.957 420.964 655.253 421.45C654.554 421.935 653.693 422.178 652.669 422.178C651.776 422.178 650.986 421.979 650.299 421.583C649.618 421.18 649.086 420.597 648.701 419.834C648.316 419.064 648.124 418.135 648.124 417.046V408.364H651.338V416.549C651.338 417.413 651.574 418.1 652.048 418.609C652.521 419.118 653.143 419.372 653.912 419.372C654.386 419.372 654.844 419.257 655.288 419.026C655.732 418.795 656.096 418.452 656.38 417.996C656.67 417.534 656.815 416.957 656.815 416.265ZM666.548 403.818V422H663.334V403.818H666.548ZM673.066 403.818V422H669.852V403.818H673.066ZM691.171 409.6H694.971V412.275H691.171V409.6ZM698.646 401.075H701.821V424.225H698.646V401.075ZM693.921 401.425H697.046V423.175H693.921V401.425ZM687.121 402.7C690.196 402.7 692.171 405.875 692.171 411.1C692.171 416.35 690.196 419.525 687.121 419.525C684.071 419.525 682.121 416.35 682.121 411.1C682.121 405.875 684.071 402.7 687.121 402.7ZM687.121 405.825C685.871 405.825 685.146 407.575 685.146 411.1C685.146 414.65 685.871 416.375 687.121 416.375C688.421 416.375 689.146 414.65 689.146 411.1C689.146 407.575 688.421 405.825 687.121 405.825ZM720.969 401.05H724.294V424.275H720.969V401.05ZM717.344 409.4H721.644V412.075H717.344V409.4ZM705.719 416.175H707.619C711.369 416.175 714.344 416.1 717.694 415.525L717.994 418.225C714.569 418.8 711.469 418.925 707.619 418.925H705.719V416.175ZM705.669 403.025H716.094V411.725H709.019V417H705.719V409.1H712.819V405.675H705.669V403.025ZM734.643 415.8H735.793C737.793 415.8 739.043 415.775 740.543 415.425L740.868 418.125C739.268 418.475 737.968 418.5 735.793 418.5H734.643V415.8ZM734.643 403.2H740.593V405.85H737.918V416.95H734.643V403.2ZM741.668 415.8H742.968C745.593 415.8 746.993 415.75 748.643 415.375L748.893 418.05C747.168 418.475 745.743 418.5 742.968 418.5H741.668V415.8ZM741.668 403.2H747.968V405.85H744.968V417.025H741.668V403.2ZM750.443 401.075H753.768V424.225H750.443V401.075ZM747.018 409.1H751.543V411.825H747.018V409.1ZM761.741 412.825H765.041V419.325H761.741V412.825ZM770.141 412.825H773.466V419.325H770.141V412.825ZM757.141 418.85H778.091V421.55H757.141V418.85ZM767.591 402.2C772.566 402.2 776.241 404.65 776.241 408.425C776.241 412.2 772.566 414.625 767.591 414.625C762.591 414.625 758.941 412.2 758.941 408.425C758.941 404.65 762.591 402.2 767.591 402.2ZM767.591 404.8C764.366 404.8 762.216 406.125 762.216 408.425C762.216 410.7 764.366 412.05 767.591 412.05C770.816 412.05 772.966 410.7 772.966 408.425C772.966 406.125 770.816 404.8 767.591 404.8Z" fill="black"/>
<path d="M745.88 111.943H241V1H800V111.943H785.076H784.076V112.943V134.252L746.387 112.082L746.152 111.943H745.88Z" fill="white" stroke="black" stroke-width="2"/>
<path d="M264.793 53V34.8182H276.441V37.5792H268.087V42.5153H275.642V45.2763H268.087V53H264.793ZM279.104 53V39.3636H282.221V41.6364H282.363C282.611 40.8492 283.037 40.2425 283.641 39.8164C284.251 39.3844 284.946 39.1683 285.727 39.1683C285.905 39.1683 286.103 39.1772 286.322 39.195C286.547 39.2068 286.733 39.2275 286.881 39.2571V42.2134C286.745 42.1661 286.529 42.1246 286.233 42.0891C285.943 42.0477 285.662 42.027 285.39 42.027C284.804 42.027 284.277 42.1542 283.81 42.4087C283.348 42.6573 282.984 43.0036 282.718 43.4474C282.451 43.8913 282.318 44.4033 282.318 44.9833V53H279.104ZM294.403 53.2663C293.071 53.2663 291.917 52.9734 290.941 52.3874C289.964 51.8015 289.207 50.9818 288.668 49.9283C288.135 48.8748 287.869 47.6437 287.869 46.2351C287.869 44.8265 288.135 43.5924 288.668 42.533C289.207 41.4736 289.964 40.6509 290.941 40.065C291.917 39.479 293.071 39.1861 294.403 39.1861C295.735 39.1861 296.889 39.479 297.866 40.065C298.842 40.6509 299.597 41.4736 300.129 42.533C300.668 43.5924 300.937 44.8265 300.937 46.2351C300.937 47.6437 300.668 48.8748 300.129 49.9283C299.597 50.9818 298.842 51.8015 297.866 52.3874C296.889 52.9734 295.735 53.2663 294.403 53.2663ZM294.421 50.6918C295.143 50.6918 295.747 50.4935 296.232 50.0969C296.717 49.6945 297.078 49.1559 297.315 48.4812C297.558 47.8065 297.679 47.0548 297.679 46.2262C297.679 45.3917 297.558 44.6371 297.315 43.9624C297.078 43.2817 296.717 42.7402 296.232 42.3377C295.747 41.9353 295.143 41.734 294.421 41.734C293.681 41.734 293.066 41.9353 292.574 42.3377C292.089 42.7402 291.725 43.2817 291.482 43.9624C291.246 44.6371 291.127 45.3917 291.127 46.2262C291.127 47.0548 291.246 47.8065 291.482 48.4812C291.725 49.1559 292.089 49.6945 292.574 50.0969C293.066 50.4935 293.681 50.6918 294.421 50.6918ZM306.879 45.0099V53H303.665V39.3636H306.737V41.6808H306.896C307.21 40.9173 307.71 40.3106 308.397 39.8608C309.089 39.411 309.945 39.1861 310.963 39.1861C311.904 39.1861 312.723 39.3873 313.422 39.7898C314.126 40.1922 314.671 40.7752 315.055 41.5387C315.446 42.3022 315.638 43.2285 315.632 44.3175V53H312.419V44.8146C312.419 43.9032 312.182 43.19 311.708 42.6751C311.241 42.1602 310.593 41.9027 309.764 41.9027C309.202 41.9027 308.702 42.027 308.264 42.2756C307.832 42.5182 307.491 42.8704 307.243 43.332C307 43.7937 306.879 44.353 306.879 45.0099ZM325.709 39.3636V41.8494H317.869V39.3636H325.709ZM319.805 36.0966H323.019V48.8984C323.019 49.3305 323.084 49.6619 323.214 49.8928C323.35 50.1177 323.528 50.2715 323.747 50.3544C323.966 50.4373 324.208 50.4787 324.475 50.4787C324.676 50.4787 324.859 50.4639 325.025 50.4343C325.197 50.4047 325.327 50.3781 325.416 50.3544L325.957 52.8668C325.786 52.926 325.54 52.9911 325.22 53.0621C324.907 53.1332 324.522 53.1746 324.066 53.1864C323.261 53.2101 322.536 53.0888 321.891 52.8224C321.246 52.5502 320.734 52.13 320.355 51.5618C319.982 50.9936 319.799 50.2834 319.805 49.4311V36.0966ZM328.831 53V34.8182H340.657V37.5792H332.125V42.5153H340.044V45.2763H332.125V50.239H340.728V53H328.831ZM347.089 45.0099V53H343.875V39.3636H346.947V41.6808H347.106C347.42 40.9173 347.92 40.3106 348.607 39.8608C349.299 39.411 350.155 39.1861 351.172 39.1861C352.114 39.1861 352.933 39.3873 353.632 39.7898C354.336 40.1922 354.88 40.7752 355.265 41.5387C355.656 42.3022 355.848 43.2285 355.842 44.3175V53H352.628V44.8146C352.628 43.9032 352.392 43.19 351.918 42.6751C351.451 42.1602 350.803 41.9027 349.974 41.9027C349.412 41.9027 348.912 42.027 348.474 42.2756C348.042 42.5182 347.701 42.8704 347.453 43.332C347.21 43.7937 347.089 44.353 347.089 45.0099ZM364.17 53.2397C363.098 53.2397 362.14 52.9645 361.293 52.4141C360.447 51.8636 359.778 51.0646 359.287 50.017C358.796 48.9695 358.55 47.697 358.55 46.1996C358.55 44.6844 358.799 43.406 359.296 42.3643C359.799 41.3168 360.476 40.5266 361.329 39.994C362.181 39.4554 363.131 39.1861 364.179 39.1861C364.978 39.1861 365.634 39.3222 366.149 39.5945C366.664 39.8608 367.073 40.1834 367.375 40.5621C367.676 40.935 367.91 41.2872 368.076 41.6186H368.209V34.8182H371.432V53H368.271V50.8516H368.076C367.91 51.183 367.67 51.5352 367.357 51.908C367.043 52.275 366.629 52.5887 366.114 52.8491C365.599 53.1095 364.951 53.2397 364.17 53.2397ZM365.066 50.603C365.747 50.603 366.327 50.4195 366.806 50.0526C367.286 49.6797 367.65 49.1618 367.898 48.4989C368.147 47.8361 368.271 47.0637 368.271 46.1818C368.271 45.3 368.147 44.5335 367.898 43.8825C367.656 43.2314 367.295 42.7254 366.815 42.3643C366.342 42.0033 365.759 41.8228 365.066 41.8228C364.35 41.8228 363.752 42.0092 363.273 42.3821C362.794 42.755 362.433 43.2699 362.19 43.9268C361.947 44.5838 361.826 45.3355 361.826 46.1818C361.826 47.0341 361.947 47.7946 362.19 48.4634C362.438 49.1263 362.802 49.6501 363.282 50.0348C363.767 50.4136 364.362 50.603 365.066 50.603ZM393.238 39.3636L388.382 53H384.831L379.974 39.3636H383.401L386.535 49.4933H386.677L389.82 39.3636H393.238ZM406.24 42.968L403.31 43.2876C403.227 42.9917 403.082 42.7135 402.875 42.4531C402.674 42.1927 402.401 41.9826 402.058 41.8228C401.715 41.663 401.295 41.5831 400.797 41.5831C400.129 41.5831 399.566 41.7281 399.111 42.0181C398.661 42.3081 398.439 42.6839 398.445 43.1456C398.439 43.5421 398.584 43.8647 398.88 44.1133C399.182 44.3619 399.679 44.5661 400.371 44.7259L402.697 45.223C403.988 45.5012 404.946 45.9421 405.574 46.5458C406.207 47.1495 406.527 47.9396 406.532 48.9162C406.527 49.7744 406.275 50.532 405.778 51.1889C405.287 51.84 404.603 52.349 403.727 52.7159C402.851 53.0829 401.845 53.2663 400.709 53.2663C399.04 53.2663 397.696 52.9171 396.678 52.2188C395.66 51.5144 395.053 50.5349 394.858 49.2802L397.992 48.9783C398.134 49.5939 398.436 50.0585 398.898 50.3722C399.359 50.6858 399.96 50.8427 400.7 50.8427C401.463 50.8427 402.076 50.6858 402.537 50.3722C403.005 50.0585 403.239 49.6708 403.239 49.2092C403.239 48.8185 403.088 48.496 402.786 48.2415C402.49 47.987 402.028 47.7917 401.401 47.6555L399.075 47.1673C397.767 46.895 396.799 46.4363 396.172 45.7912C395.545 45.1402 395.234 44.3175 395.24 43.3232C395.234 42.4827 395.462 41.7547 395.923 41.1392C396.391 40.5178 397.039 40.0384 397.868 39.701C398.702 39.3577 399.664 39.1861 400.753 39.1861C402.351 39.1861 403.609 39.5264 404.526 40.207C405.449 40.8877 406.021 41.808 406.24 42.968ZM415.526 53V34.8182H422.486C423.8 34.8182 424.892 35.0253 425.762 35.4396C426.638 35.848 427.292 36.4073 427.724 37.1175C428.162 37.8278 428.381 38.6327 428.381 39.5323C428.381 40.2721 428.239 40.9054 427.955 41.4322C427.671 41.953 427.289 42.3762 426.809 42.7017C426.33 43.0272 425.794 43.261 425.203 43.4031V43.5806C425.848 43.6161 426.466 43.8144 427.058 44.1754C427.656 44.5305 428.144 45.0336 428.523 45.6847C428.902 46.3357 429.091 47.1229 429.091 48.0462C429.091 48.9872 428.863 49.8336 428.407 50.5852C427.952 51.331 427.265 51.9199 426.348 52.3519C425.43 52.784 424.276 53 422.885 53H415.526ZM418.819 50.2479H422.362C423.557 50.2479 424.418 50.02 424.945 49.5643C425.478 49.1026 425.744 48.5108 425.744 47.7887C425.744 47.2501 425.611 46.7648 425.345 46.3327C425.078 45.8948 424.7 45.5515 424.208 45.3029C423.717 45.0484 423.131 44.9212 422.45 44.9212H418.819V50.2479ZM418.819 42.5508H422.078C422.646 42.5508 423.158 42.4472 423.613 42.2401C424.069 42.027 424.427 41.7281 424.688 41.3434C424.954 40.9528 425.087 40.4911 425.087 39.9585C425.087 39.2541 424.839 38.6741 424.341 38.2184C423.85 37.7627 423.119 37.5348 422.149 37.5348H418.819V42.5508ZM435.738 53.2752C434.874 53.2752 434.096 53.1213 433.403 52.8136C432.717 52.4999 432.172 52.0382 431.77 51.4286C431.373 50.819 431.175 50.0674 431.175 49.1737C431.175 48.4042 431.317 47.768 431.601 47.2649C431.885 46.7618 432.273 46.3594 432.764 46.0575C433.256 45.7557 433.809 45.5278 434.424 45.3739C435.046 45.2141 435.688 45.0987 436.351 45.0277C437.15 44.9448 437.798 44.8709 438.295 44.8058C438.792 44.7347 439.153 44.6282 439.378 44.4862C439.609 44.3382 439.725 44.1103 439.725 43.8026V43.7493C439.725 43.0805 439.526 42.5626 439.13 42.1957C438.733 41.8287 438.162 41.6452 437.416 41.6452C436.629 41.6452 436.005 41.8169 435.543 42.1602C435.087 42.5034 434.78 42.9089 434.62 43.3764L431.619 42.9503C431.856 42.1217 432.246 41.4292 432.791 40.8729C433.335 40.3106 434.001 39.8904 434.788 39.6122C435.576 39.3281 436.446 39.1861 437.399 39.1861C438.055 39.1861 438.709 39.263 439.361 39.4169C440.012 39.5708 440.606 39.8253 441.145 40.1804C441.684 40.5296 442.116 41.006 442.441 41.6097C442.773 42.2134 442.938 42.968 442.938 43.8736V53H439.849V51.1268H439.742C439.547 51.5056 439.272 51.8607 438.917 52.1921C438.567 52.5176 438.127 52.781 437.594 52.9822C437.067 53.1776 436.449 53.2752 435.738 53.2752ZM436.573 50.9137C437.218 50.9137 437.777 50.7865 438.251 50.532C438.724 50.2715 439.088 49.9283 439.343 49.5021C439.603 49.076 439.733 48.6114 439.733 48.1083V46.5014C439.633 46.5843 439.461 46.6612 439.218 46.7322C438.982 46.8033 438.715 46.8654 438.419 46.9187C438.124 46.9719 437.831 47.0193 437.541 47.0607C437.251 47.1022 436.999 47.1377 436.786 47.1673C436.307 47.2324 435.877 47.3389 435.499 47.4869C435.12 47.6348 434.821 47.842 434.602 48.1083C434.383 48.3687 434.274 48.7061 434.274 49.1204C434.274 49.7122 434.49 50.1591 434.922 50.4609C435.354 50.7628 435.904 50.9137 436.573 50.9137ZM452.118 53.2663C450.757 53.2663 449.588 52.9674 448.611 52.3697C447.641 51.7719 446.892 50.9463 446.365 49.8928C445.844 48.8333 445.584 47.6141 445.584 46.2351C445.584 44.8501 445.85 43.628 446.383 42.5685C446.916 41.5032 447.667 40.6746 448.638 40.0827C449.614 39.485 450.769 39.1861 452.1 39.1861C453.207 39.1861 454.187 39.3903 455.039 39.7987C455.897 40.2011 456.581 40.7723 457.09 41.5121C457.599 42.246 457.889 43.1042 457.96 44.0866H454.888C454.764 43.4297 454.468 42.8822 454 42.4442C453.538 42.0004 452.92 41.7784 452.145 41.7784C451.488 41.7784 450.911 41.956 450.413 42.3111C449.916 42.6603 449.529 43.1634 449.25 43.8203C448.978 44.4773 448.842 45.2644 448.842 46.1818C448.842 47.111 448.978 47.91 449.25 48.5788C449.523 49.2417 449.904 49.7537 450.396 50.1147C450.893 50.4698 451.476 50.6474 452.145 50.6474C452.618 50.6474 453.041 50.5586 453.414 50.381C453.793 50.1976 454.11 49.9342 454.364 49.5909C454.619 49.2476 454.793 48.8304 454.888 48.3391H457.96C457.883 49.3039 457.599 50.1591 457.107 50.9048C456.616 51.6446 455.947 52.2247 455.101 52.6449C454.255 53.0592 453.26 53.2663 452.118 53.2663ZM463.528 48.7209L463.519 44.8413H464.034L468.935 39.3636H472.69L466.662 46.0753H465.996L463.528 48.7209ZM460.599 53V34.8182H463.812V53H460.599ZM469.157 53L464.718 46.7944L466.884 44.5305L473.001 53H469.157ZM474.974 53V34.8182H486.799V37.5792H478.268V42.5153H486.187V45.2763H478.268V50.239H486.87V53H474.974ZM493.231 45.0099V53H490.017V39.3636H493.089V41.6808H493.249C493.563 40.9173 494.063 40.3106 494.749 39.8608C495.442 39.411 496.297 39.1861 497.315 39.1861C498.256 39.1861 499.076 39.3873 499.774 39.7898C500.479 40.1922 501.023 40.7752 501.408 41.5387C501.798 42.3022 501.991 43.2285 501.985 44.3175V53H498.771V44.8146C498.771 43.9032 498.534 43.19 498.061 42.6751C497.593 42.1602 496.945 41.9027 496.117 41.9027C495.554 41.9027 495.054 42.027 494.616 42.2756C494.184 42.5182 493.844 42.8704 493.595 43.332C493.353 43.7937 493.231 44.353 493.231 45.0099ZM510.312 53.2397C509.241 53.2397 508.282 52.9645 507.436 52.4141C506.589 51.8636 505.921 51.0646 505.429 50.017C504.938 48.9695 504.693 47.697 504.693 46.1996C504.693 44.6844 504.941 43.406 505.438 42.3643C505.941 41.3168 506.619 40.5266 507.471 39.994C508.324 39.4554 509.274 39.1861 510.321 39.1861C511.12 39.1861 511.777 39.3222 512.292 39.5945C512.807 39.8608 513.215 40.1834 513.517 40.5621C513.819 40.935 514.053 41.2872 514.218 41.6186H514.352V34.8182H517.574V53H514.414V50.8516H514.218C514.053 51.183 513.813 51.5352 513.499 51.908C513.186 52.275 512.771 52.5887 512.256 52.8491C511.742 53.1095 511.093 53.2397 510.312 53.2397ZM511.209 50.603C511.89 50.603 512.47 50.4195 512.949 50.0526C513.428 49.6797 513.792 49.1618 514.041 48.4989C514.29 47.8361 514.414 47.0637 514.414 46.1818C514.414 45.3 514.29 44.5335 514.041 43.8825C513.798 43.2314 513.437 42.7254 512.958 42.3643C512.484 42.0033 511.901 41.8228 511.209 41.8228C510.493 41.8228 509.895 42.0092 509.416 42.3821C508.936 42.755 508.575 43.2699 508.332 43.9268C508.09 44.5838 507.968 45.3355 507.968 46.1818C507.968 47.0341 508.09 47.7946 508.332 48.4634C508.581 49.1263 508.945 49.6501 509.424 50.0348C509.91 50.4136 510.505 50.603 511.209 50.603ZM539.381 39.3636L534.524 53H530.973L526.117 39.3636H529.544L532.678 49.4933H532.82L535.963 39.3636H539.381ZM552.382 42.968L549.452 43.2876C549.37 42.9917 549.225 42.7135 549.017 42.4531C548.816 42.1927 548.544 41.9826 548.201 41.8228C547.857 41.663 547.437 41.5831 546.94 41.5831C546.271 41.5831 545.709 41.7281 545.253 42.0181C544.803 42.3081 544.581 42.6839 544.587 43.1456C544.581 43.5421 544.726 43.8647 545.022 44.1133C545.324 44.3619 545.821 44.5661 546.514 44.7259L548.84 45.223C550.13 45.5012 551.089 45.9421 551.716 46.5458C552.35 47.1495 552.669 47.9396 552.675 48.9162C552.669 49.7744 552.418 50.532 551.92 51.1889C551.429 51.84 550.746 52.349 549.87 52.7159C548.994 53.0829 547.988 53.2663 546.851 53.2663C545.182 53.2663 543.839 52.9171 542.821 52.2188C541.803 51.5144 541.196 50.5349 541.001 49.2802L544.135 48.9783C544.277 49.5939 544.578 50.0585 545.04 50.3722C545.502 50.6858 546.103 50.8427 546.842 50.8427C547.606 50.8427 548.218 50.6858 548.68 50.3722C549.148 50.0585 549.381 49.6708 549.381 49.2092C549.381 48.8185 549.23 48.496 548.929 48.2415C548.633 47.987 548.171 47.7917 547.544 47.6555L545.218 47.1673C543.91 46.895 542.942 46.4363 542.315 45.7912C541.687 45.1402 541.377 44.3175 541.382 43.3232C541.377 42.4827 541.604 41.7547 542.066 41.1392C542.534 40.5178 543.182 40.0384 544.01 39.701C544.845 39.3577 545.807 39.1861 546.896 39.1861C548.494 39.1861 549.751 39.5264 550.669 40.207C551.592 40.8877 552.163 41.808 552.382 42.968ZM564.003 53H560.488L566.888 34.8182H570.955L577.364 53H573.849L568.993 38.5469H568.85L564.003 53ZM564.119 45.8711H573.707V48.5167H564.119V45.8711ZM579.617 58.1136V39.3636H582.778V41.6186H582.964C583.13 41.2872 583.364 40.935 583.665 40.5621C583.967 40.1834 584.376 39.8608 584.891 39.5945C585.405 39.3222 586.062 39.1861 586.861 39.1861C587.915 39.1861 588.865 39.4554 589.711 39.994C590.563 40.5266 591.238 41.3168 591.735 42.3643C592.238 43.406 592.49 44.6844 592.49 46.1996C592.49 47.697 592.244 48.9695 591.753 50.017C591.262 51.0646 590.593 51.8636 589.747 52.4141C588.9 52.9645 587.942 53.2397 586.87 53.2397C586.089 53.2397 585.441 53.1095 584.926 52.8491C584.411 52.5887 583.997 52.275 583.683 51.908C583.375 51.5352 583.136 51.183 582.964 50.8516H582.831V58.1136H579.617ZM582.769 46.1818C582.769 47.0637 582.893 47.8361 583.142 48.4989C583.396 49.1618 583.76 49.6797 584.234 50.0526C584.713 50.4195 585.293 50.603 585.974 50.603C586.684 50.603 587.279 50.4136 587.758 50.0348C588.237 49.6501 588.599 49.1263 588.841 48.4634C589.09 47.7946 589.214 47.0341 589.214 46.1818C589.214 45.3355 589.093 44.5838 588.85 43.9268C588.607 43.2699 588.246 42.755 587.767 42.3821C587.288 42.0092 586.69 41.8228 585.974 41.8228C585.287 41.8228 584.704 42.0033 584.225 42.3643C583.745 42.7254 583.381 43.2314 583.133 43.8825C582.89 44.5335 582.769 45.3 582.769 46.1818ZM595.242 58.1136V39.3636H598.403V41.6186H598.589C598.755 41.2872 598.989 40.935 599.29 40.5621C599.592 40.1834 600.001 39.8608 600.516 39.5945C601.03 39.3222 601.687 39.1861 602.486 39.1861C603.54 39.1861 604.49 39.4554 605.336 39.994C606.188 40.5266 606.863 41.3168 607.36 42.3643C607.863 43.406 608.115 44.6844 608.115 46.1996C608.115 47.697 607.869 48.9695 607.378 50.017C606.887 51.0646 606.218 51.8636 605.372 52.4141C604.525 52.9645 603.567 53.2397 602.495 53.2397C601.714 53.2397 601.066 53.1095 600.551 52.8491C600.036 52.5887 599.622 52.275 599.308 51.908C599 51.5352 598.761 51.183 598.589 50.8516H598.456V58.1136H595.242ZM598.394 46.1818C598.394 47.0637 598.518 47.8361 598.767 48.4989C599.021 49.1618 599.385 49.6797 599.859 50.0526C600.338 50.4195 600.918 50.603 601.599 50.603C602.309 50.603 602.904 50.4136 603.383 50.0348C603.862 49.6501 604.224 49.1263 604.466 48.4634C604.715 47.7946 604.839 47.0341 604.839 46.1818C604.839 45.3355 604.718 44.5838 604.475 43.9268C604.232 43.2699 603.871 42.755 603.392 42.3821C602.913 42.0092 602.315 41.8228 601.599 41.8228C600.912 41.8228 600.329 42.0033 599.85 42.3643C599.37 42.7254 599.006 43.2314 598.758 43.8825C598.515 44.5335 598.394 45.3 598.394 46.1818ZM270.35 63.675C273.8 63.675 276.325 66.875 276.325 71.925C276.325 77.025 273.8 80.225 270.35 80.225C266.875 80.225 264.375 77.025 264.375 71.925C264.375 66.875 266.875 63.675 270.35 63.675ZM270.35 66.7C268.675 66.7 267.55 68.525 267.55 71.925C267.55 75.375 268.675 77.225 270.35 77.225C272.05 77.225 273.15 75.375 273.15 71.925C273.15 68.525 272.05 66.7 270.35 66.7ZM280.125 62.05H283.425V85.275H280.125V62.05ZM275.35 70.4H281.525V73.075H275.35V70.4ZM290.548 82.175H307.173V84.825H290.548V82.175ZM290.548 77.425H293.898V83.825H290.548V77.425ZM303.298 62.1H306.598V78.85H303.298V62.1ZM300.248 68.175H306.148V70.825H300.248V68.175ZM287.323 72.95H288.498C290.448 72.95 291.823 72.9 293.523 72.55L293.773 75.225C291.973 75.6 290.573 75.6 288.498 75.6H287.323V72.95ZM287.323 63.825H293.398V66.475H290.598V73.45H287.323V63.825ZM294.498 72.95H295.748C298.673 72.95 299.948 72.9 301.448 72.525L301.723 75.2C300.123 75.55 298.798 75.6 295.748 75.6H294.498V72.95ZM294.498 63.825H300.923V66.475H297.748V73.425H294.498V63.825ZM328.597 68.05H333.997V70.725H328.597V68.05ZM332.247 62.1H335.572V78.975H332.247V62.1ZM320.297 82.175H336.097V84.825H320.297V82.175ZM320.297 77.55H323.622V83.75H320.297V77.55ZM321.547 65.125H324.247V66.575C324.247 70.925 322.197 74.95 317.747 76.425L316.072 73.775C319.897 72.525 321.547 69.5 321.547 66.575V65.125ZM322.247 65.125H324.922V66.575C324.922 69.275 326.497 72.15 330.147 73.375L328.522 75.975C324.222 74.55 322.247 70.7 322.247 66.575V65.125ZM316.972 63.65H329.422V66.275H316.972V63.65ZM349.545 76.475C354.545 76.475 357.745 78.125 357.745 80.875C357.745 83.575 354.545 85.225 349.545 85.225C344.545 85.225 341.345 83.575 341.345 80.875C341.345 78.125 344.545 76.475 349.545 76.475ZM349.545 78.975C346.42 78.975 344.645 79.625 344.645 80.875C344.645 82.1 346.42 82.725 349.545 82.725C352.67 82.725 354.445 82.1 354.445 80.875C354.445 79.625 352.67 78.975 349.545 78.975ZM341.595 63.1H356.245V65.725H341.595V63.1ZM339.245 72.4H360.095V75.05H339.245V72.4ZM346.97 68.375H350.27V73.075H346.97V68.375ZM354.32 63.1H357.62V65C357.62 66.825 357.62 68.8 356.995 71.2L353.695 70.85C354.32 68.475 354.32 66.8 354.32 65V63.1ZM378.068 62.05H381.418V85.275H378.068V62.05ZM368.943 63.675C372.443 63.675 375.018 66.875 375.018 71.925C375.018 77.025 372.443 80.225 368.943 80.225C365.443 80.225 362.868 77.025 362.868 71.925C362.868 66.875 365.443 63.675 368.943 63.675ZM368.943 66.7C367.218 66.7 366.043 68.525 366.043 71.925C366.043 75.375 367.218 77.225 368.943 77.225C370.668 77.225 371.818 75.375 371.818 71.925C371.818 68.525 370.668 66.7 368.943 66.7ZM392.543 64.15H403.668V79.725H392.543V64.15ZM400.418 66.75H395.818V77.1H400.418V66.75ZM407.268 62.05H410.618V85.275H407.268V62.05ZM415.016 77.375H416.641C419.391 77.375 421.816 77.325 424.666 76.875L424.916 79.55C421.966 80.05 419.466 80.125 416.641 80.125H415.016V77.375ZM414.991 64.325H423.766V73.275H418.241V78.375H415.016V70.65H420.541V66.975H414.991V64.325ZM431.116 62.075H434.266V85.225H431.116V62.075ZM428.016 70.825H431.866V73.475H428.016V70.825ZM425.941 62.475H429.016V84.125H425.941V62.475ZM446.639 70.6H450.439V73.275H446.639V70.6ZM454.114 62.075H457.289V85.225H454.114V62.075ZM449.389 62.425H452.514V84.175H449.389V62.425ZM442.589 63.7C445.664 63.7 447.639 66.875 447.639 72.1C447.639 77.35 445.664 80.525 442.589 80.525C439.539 80.525 437.589 77.35 437.589 72.1C437.589 66.875 439.539 63.7 442.589 63.7ZM442.589 66.825C441.339 66.825 440.614 68.575 440.614 72.1C440.614 75.65 441.339 77.375 442.589 77.375C443.889 77.375 444.614 75.65 444.614 72.1C444.614 68.575 443.889 66.825 442.589 66.825ZM467.688 76.975H469.563C473.663 76.975 476.338 76.875 479.338 76.325L479.663 79C476.563 79.575 473.788 79.7 469.563 79.7H467.688V76.975ZM467.688 64.125H478.163V66.775H471.013V78H467.688V64.125ZM482.713 62.075H486.038V85.3H482.713V62.075ZM477.038 70.05H484.113V72.75H477.038V70.05ZM500.512 76.7H503.912V85.225H500.512V76.7ZM508.512 76.7H511.912V85.225H508.512V76.7ZM495.787 74.95H516.762V77.625H495.787V74.95ZM506.212 62.85C511.162 62.85 514.587 64.875 514.587 68.05C514.587 71.175 511.162 73.2 506.212 73.2C501.287 73.2 497.862 71.175 497.862 68.05C497.862 64.875 501.287 62.85 506.212 62.85ZM506.212 65.5C503.187 65.5 501.262 66.4 501.262 68.05C501.262 69.675 503.187 70.575 506.212 70.575C509.262 70.575 511.162 69.675 511.162 68.05C511.162 66.4 509.262 65.5 506.212 65.5ZM519.46 63.725H530.485V74.1H519.46V63.725ZM527.21 66.35H522.735V71.475H527.21V66.35ZM533.685 62.075H537.01V75.5H533.685V62.075ZM536.085 67.25H540.085V69.975H536.085V67.25ZM529.46 76.1C534.235 76.1 537.285 77.825 537.285 80.675C537.285 83.55 534.235 85.25 529.46 85.25C524.66 85.25 521.61 83.55 521.61 80.675C521.61 77.825 524.66 76.1 529.46 76.1ZM529.46 78.725C526.51 78.725 524.91 79.35 524.91 80.675C524.91 82.025 526.51 82.65 529.46 82.65C532.41 82.65 533.985 82.025 533.985 80.675C533.985 79.35 532.41 78.725 529.46 78.725ZM556.683 62.05H560.008V74.55H556.683V62.05ZM558.683 67H563.083V69.7H558.683V67ZM544.708 75.475H560.008V81.35H548.058V83.45H544.758V79.1H556.733V77.875H544.708V75.475ZM544.758 82.625H560.683V85.075H544.758V82.625ZM541.783 63.775H555.408V66.275H541.783V63.775ZM548.608 66.825C552.033 66.825 554.283 68.3 554.283 70.625C554.283 72.95 552.033 74.375 548.608 74.375C545.158 74.375 542.908 72.95 542.908 70.625C542.908 68.3 545.158 66.825 548.608 66.825ZM548.608 69.15C547.058 69.15 546.108 69.65 546.108 70.625C546.108 71.55 547.058 72.05 548.608 72.05C550.158 72.05 551.108 71.55 551.108 70.625C551.108 69.65 550.158 69.15 548.608 69.15ZM546.933 61.9H550.258V65.55H546.933V61.9ZM579.856 62.075H583.181V85.225H579.856V62.075ZM582.156 71.125H586.181V73.875H582.156V71.125ZM568.506 64.425H571.606C571.606 70.85 571.006 75.775 566.906 80.375L564.306 78.5C567.881 74.55 568.506 70.7 568.506 64.825V64.425ZM565.331 64.425H569.806V67.125H565.331V64.425ZM574.881 64.425H577.981C577.981 71.15 577.431 76.825 573.406 81.85L570.806 80C574.306 75.575 574.881 71.125 574.881 64.8V64.425ZM572.381 64.425H576.256V67.125H572.381V64.425ZM592.404 73.825H595.704V80.325H592.404V73.825ZM600.804 73.825H604.129V80.325H600.804V73.825ZM587.804 79.85H608.754V82.55H587.804V79.85ZM598.254 63.2C603.229 63.2 606.904 65.65 606.904 69.425C606.904 73.2 603.229 75.625 598.254 75.625C593.254 75.625 589.604 73.2 589.604 69.425C589.604 65.65 593.254 63.2 598.254 63.2ZM598.254 65.8C595.029 65.8 592.879 67.125 592.879 69.425C592.879 71.7 595.029 73.05 598.254 73.05C601.479 73.05 603.629 71.7 603.629 69.425C603.629 67.125 601.479 65.8 598.254 65.8ZM614.5 77.6555V77.4247C614.506 76.3535 614.607 75.5012 614.802 74.8679C615.003 74.2346 615.288 73.7256 615.654 73.3409C616.021 72.9503 616.468 72.5922 616.995 72.2667C617.356 72.0418 617.679 71.7962 617.963 71.5298C618.253 71.2576 618.481 70.9557 618.646 70.6243C618.812 70.2869 618.895 69.9111 618.895 69.4968C618.895 69.0292 618.785 68.6238 618.566 68.2805C618.347 67.9373 618.051 67.6709 617.679 67.4815C617.312 67.2921 616.9 67.1974 616.445 67.1974C616.024 67.1974 615.625 67.2892 615.246 67.4727C614.873 67.6502 614.563 67.9225 614.314 68.2894C614.071 68.6504 613.935 69.1091 613.906 69.6655H610.745C610.775 68.541 611.047 67.5999 611.562 66.8423C612.083 66.0848 612.769 65.5166 613.621 65.1378C614.48 64.759 615.427 64.5696 616.462 64.5696C617.593 64.5696 618.587 64.7679 619.445 65.1644C620.309 65.561 620.981 66.1262 621.461 66.8601C621.946 67.5881 622.189 68.4522 622.189 69.4524C622.189 70.1271 622.079 70.7308 621.86 71.2635C621.647 71.7962 621.342 72.2696 620.946 72.6839C620.549 73.0982 620.079 73.4682 619.534 73.7937C619.055 74.0896 618.661 74.3974 618.353 74.717C618.051 75.0366 617.827 75.4124 617.679 75.8445C617.537 76.2706 617.463 76.7973 617.457 77.4247V77.6555H614.5ZM616.045 83.1953C615.512 83.1953 615.054 83.0059 614.669 82.6271C614.284 82.2483 614.092 81.7867 614.092 81.2422C614.092 80.7095 614.284 80.2538 614.669 79.875C615.054 79.4962 615.512 79.3068 616.045 79.3068C616.572 79.3068 617.028 79.4962 617.412 79.875C617.803 80.2538 617.998 80.7095 617.998 81.2422C617.998 81.6032 617.906 81.9317 617.723 82.2276C617.545 82.5236 617.309 82.7603 617.013 82.9379C616.723 83.1095 616.4 83.1953 616.045 83.1953Z" fill="black"/>
</svg>
