<svg width="84" height="166" viewBox="0 0 84 166" fill="none" xmlns="http://www.w3.org/2000/svg">
<ellipse cx="42" cy="124.5" rx="42" ry="41.5" fill="#EDC806"/>
<path d="M33.3572 133.379C32.7109 133.379 32.157 133.152 31.6953 132.697C31.2337 132.236 31.0064 131.682 31.0135 131.036C31.0064 130.396 31.2337 129.849 31.6953 129.395C32.157 128.94 32.7109 128.713 33.3572 128.713C33.9822 128.713 34.5256 128.94 34.9872 129.395C35.456 129.849 35.6939 130.396 35.701 131.036C35.6939 131.469 35.5803 131.863 35.3601 132.218C35.147 132.573 34.8629 132.857 34.5078 133.07C34.1598 133.276 33.7763 133.379 33.3572 133.379ZM33.3572 122.566C32.7109 122.566 32.157 122.339 31.6953 121.884C31.2337 121.423 31.0064 120.869 31.0135 120.222C31.0064 119.583 31.2337 119.036 31.6953 118.582C32.157 118.12 32.7109 117.889 33.3572 117.889C33.9822 117.889 34.5256 118.12 34.9872 118.582C35.456 119.036 35.6939 119.583 35.701 120.222C35.6939 120.648 35.5803 121.039 35.3601 121.394C35.147 121.749 34.8629 122.033 34.5078 122.246C34.1598 122.46 33.7763 122.566 33.3572 122.566ZM43.3688 129.587V129.31C43.3759 128.024 43.4966 127.001 43.731 126.241C43.9725 125.482 44.3134 124.871 44.7537 124.409C45.1941 123.94 45.7303 123.511 46.3624 123.12C46.7956 122.85 47.1827 122.555 47.5236 122.236C47.8716 121.909 48.1451 121.547 48.3439 121.149C48.5428 120.744 48.6422 120.293 48.6422 119.796C48.6422 119.235 48.5108 118.749 48.248 118.337C47.9853 117.925 47.6301 117.605 47.1827 117.378C46.7424 117.151 46.2488 117.037 45.7019 117.037C45.1976 117.037 44.7182 117.147 44.2637 117.367C43.8162 117.58 43.4434 117.907 43.1451 118.347C42.8539 118.781 42.6905 119.331 42.655 119.999H38.8624C38.8979 118.649 39.2246 117.52 39.8425 116.611C40.4675 115.702 41.2914 115.02 42.3141 114.565C43.3439 114.111 44.4803 113.884 45.7232 113.884C47.0797 113.884 48.2729 114.121 49.3027 114.597C50.3397 115.073 51.1458 115.751 51.7211 116.632C52.3034 117.506 52.5946 118.543 52.5946 119.743C52.5946 120.553 52.4632 121.277 52.2005 121.916C51.9448 122.555 51.579 123.124 51.1032 123.621C50.6273 124.118 50.0627 124.562 49.4093 124.952C48.834 125.308 48.3617 125.677 47.9924 126.06C47.6301 126.444 47.3603 126.895 47.1827 127.413C47.0123 127.925 46.9235 128.557 46.9164 129.31V129.587H43.3688ZM45.2225 136.234C44.5833 136.234 44.0328 136.007 43.5712 135.553C43.1096 135.098 42.8787 134.544 42.8787 133.891C42.8787 133.251 43.1096 132.705 43.5712 132.25C44.0328 131.795 44.5833 131.568 45.2225 131.568C45.8546 131.568 46.4015 131.795 46.8631 132.25C47.3319 132.705 47.5662 133.251 47.5662 133.891C47.5662 134.324 47.4561 134.718 47.236 135.073C47.0229 135.428 46.7388 135.712 46.3837 135.925C46.0357 136.131 45.6486 136.234 45.2225 136.234Z" fill="black"/>
<ellipse cx="42" cy="41.5" rx="42" ry="41.5" fill="#EDC806"/>
<path d="M33.3572 53.2344C32.7109 53.2344 32.157 53.0071 31.6953 52.5526C31.2337 52.098 31.0064 51.544 31.0135 50.8906C31.0064 50.2514 31.2337 49.7045 31.6953 49.25C32.157 48.7955 32.7109 48.5682 33.3572 48.5682C33.9822 48.5682 34.5256 48.7955 34.9872 49.25C35.456 49.7045 35.6939 50.2514 35.701 50.8906C35.6939 51.3239 35.5803 51.718 35.3601 52.0732C35.147 52.4283 34.8629 52.7124 34.5078 52.9254C34.1598 53.1314 33.7763 53.2344 33.3572 53.2344ZM33.3572 41.5582C32.7109 41.5582 32.157 41.331 31.6953 40.8764C31.2337 40.4148 31.0064 39.8608 31.0135 39.2145C31.0064 38.5753 31.2337 38.0284 31.6953 37.5739C32.157 37.1122 32.7109 36.8814 33.3572 36.8814C33.9822 36.8814 34.5256 37.1122 34.9872 37.5739C35.456 38.0284 35.6939 38.5753 35.701 39.2145C35.6939 39.6406 35.5803 40.0312 35.3601 40.3864C35.147 40.7415 34.8629 41.0256 34.5078 41.2386C34.1598 41.4517 33.7763 41.5582 33.3572 41.5582ZM46.8205 53.3196C45.2225 53.3196 43.8375 52.968 42.6657 52.2649C41.4938 51.5618 40.5847 50.5781 39.9384 49.3139C39.2992 48.0497 38.9796 46.5724 38.9796 44.8821C38.9796 43.1918 39.2992 41.7109 39.9384 40.4396C40.5847 39.1683 41.4938 38.1811 42.6657 37.478C43.8375 36.7749 45.2225 36.4233 46.8205 36.4233C48.4185 36.4233 49.8034 36.7749 50.9753 37.478C52.1472 38.1811 53.0527 39.1683 53.6919 40.4396C54.3382 41.7109 54.6614 43.1918 54.6614 44.8821C54.6614 46.5724 54.3382 48.0497 53.6919 49.3139C53.0527 50.5781 52.1472 51.5618 50.9753 52.2649C49.8034 52.968 48.4185 53.3196 46.8205 53.3196ZM46.8418 50.2301C47.7083 50.2301 48.4327 49.9922 49.0151 49.5163C49.5975 49.0334 50.0307 48.3871 50.3148 47.5774C50.606 46.7678 50.7516 45.8658 50.7516 44.8714C50.7516 43.87 50.606 42.9645 50.3148 42.1548C50.0307 41.3381 49.5975 40.6882 49.0151 40.2053C48.4327 39.7223 47.7083 39.4808 46.8418 39.4808C45.954 39.4808 45.2154 39.7223 44.6259 40.2053C44.0435 40.6882 43.6067 41.3381 43.3155 42.1548C43.0314 42.9645 42.8894 43.87 42.8894 44.8714C42.8894 45.8658 43.0314 46.7678 43.3155 47.5774C43.6067 48.3871 44.0435 49.0334 44.6259 49.5163C45.2154 49.9922 45.954 50.2301 46.8418 50.2301Z" fill="black"/>
</svg>
