<svg width="202" height="60" viewBox="0 0 202 60" fill="none" xmlns="http://www.w3.org/2000/svg">
<path d="M68.9545 24H62.7933V5.81818H69.0788C70.884 5.81818 72.4347 6.18217 73.7308 6.91016C75.0329 7.63222 76.0331 8.67093 76.7315 10.0263C77.4299 11.3816 77.7791 13.0033 77.7791 14.8913C77.7791 16.7853 77.427 18.4129 76.7227 19.7741C76.0243 21.1354 75.0152 22.18 73.6953 22.908C72.3814 23.636 70.8011 24 68.9545 24ZM66.087 21.1502H68.7947C70.0613 21.1502 71.1178 20.9194 71.9641 20.4577C72.8105 19.9902 73.4467 19.2947 73.8729 18.3714C74.299 17.4422 74.5121 16.2822 74.5121 14.8913C74.5121 13.5005 74.299 12.3464 73.8729 11.429C73.4467 10.5057 72.8164 9.81617 71.9819 9.36044C71.1533 8.89879 70.1235 8.66797 68.8924 8.66797H66.087V21.1502ZM80.9086 24V5.81818H92.7338V8.57919H84.2022V13.5153H92.1213V16.2763H84.2022V21.239H92.8049V24H80.9086ZM96.0941 5.81818H100.125L105.522 18.9929H105.735L111.133 5.81818H115.164V24H112.003V11.5089H111.835L106.81 23.9467H104.448L99.4233 11.4822H99.2546V24H96.0941V5.81818ZM121.085 24H117.57L123.971 5.81818H128.037L134.446 24H130.931L126.075 9.54688H125.933L121.085 24ZM121.201 16.8711H130.789V19.5167H121.201V16.8711ZM79.0398 44.9091C79.0398 46.8681 78.6728 48.546 77.9389 49.9428C77.2109 51.3337 76.2166 52.399 74.956 53.1388C73.7012 53.8787 72.2778 54.2486 70.6857 54.2486C69.0936 54.2486 67.6673 53.8787 66.4066 53.1388C65.1519 52.3931 64.1576 51.3248 63.4237 49.9339C62.6957 48.5372 62.3317 46.8622 62.3317 44.9091C62.3317 42.95 62.6957 41.2751 63.4237 39.8842C64.1576 38.4875 65.1519 37.4192 66.4066 36.6793C67.6673 35.9395 69.0936 35.5696 70.6857 35.5696C72.2778 35.5696 73.7012 35.9395 74.956 36.6793C76.2166 37.4192 77.2109 38.4875 77.9389 39.8842C78.6728 41.2751 79.0398 42.95 79.0398 44.9091ZM75.7283 44.9091C75.7283 43.5301 75.5123 42.3671 75.0803 41.4201C74.6541 40.4672 74.0623 39.7481 73.3047 39.2628C72.5471 38.7715 71.6741 38.5259 70.6857 38.5259C69.6973 38.5259 68.8243 38.7715 68.0668 39.2628C67.3092 39.7481 66.7144 40.4672 66.2823 41.4201C65.8562 42.3671 65.6431 43.5301 65.6431 44.9091C65.6431 46.2881 65.8562 47.4541 66.2823 48.407C66.7144 49.3539 67.3092 50.073 68.0668 50.5643C68.8243 51.0496 69.6973 51.2923 70.6857 51.2923C71.6741 51.2923 72.5471 51.0496 73.3047 50.5643C74.0623 50.073 74.6541 49.3539 75.0803 48.407C75.5123 47.4541 75.7283 46.2881 75.7283 44.9091ZM83.6096 35.8182L88.3415 50.1293H88.528L93.251 35.8182H96.8731L90.4633 54H86.3973L79.9964 35.8182H83.6096ZM99.2679 54V35.8182H111.093V38.5792H102.562V43.5153H110.481V46.2763H102.562V51.239H111.164V54H99.2679ZM114.453 54V35.8182H121.272C122.668 35.8182 123.84 36.0608 124.787 36.5462C125.74 37.0315 126.459 37.7121 126.945 38.5881C127.436 39.4581 127.681 40.4731 127.681 41.6332C127.681 42.7991 127.433 43.8112 126.936 44.6694C126.444 45.5217 125.719 46.1816 124.761 46.6491C123.802 47.1108 122.624 47.3416 121.227 47.3416H116.371V44.6072H120.783C121.6 44.6072 122.269 44.4948 122.79 44.2699C123.311 44.0391 123.695 43.7047 123.944 43.2667C124.198 42.8228 124.326 42.2783 124.326 41.6332C124.326 40.988 124.198 40.4376 123.944 39.9819C123.689 39.5202 123.302 39.171 122.781 38.9343C122.26 38.6916 121.588 38.5703 120.766 38.5703H117.747V54H114.453ZM123.846 45.7614L128.347 54H124.672L120.251 45.7614H123.846ZM130.713 54V35.8182H142.361V38.5792H134.007V43.5153H141.562V46.2763H134.007V54H130.713ZM145.362 54V35.8182H148.655V51.239H156.663V54H145.362ZM175.06 44.9091C175.06 46.8681 174.693 48.546 173.959 49.9428C173.231 51.3337 172.237 52.399 170.976 53.1388C169.722 53.8787 168.298 54.2486 166.706 54.2486C165.114 54.2486 163.688 53.8787 162.427 53.1388C161.172 52.3931 160.178 51.3248 159.444 49.9339C158.716 48.5372 158.352 46.8622 158.352 44.9091C158.352 42.95 158.716 41.2751 159.444 39.8842C160.178 38.4875 161.172 37.4192 162.427 36.6793C163.688 35.9395 165.114 35.5696 166.706 35.5696C168.298 35.5696 169.722 35.9395 170.976 36.6793C172.237 37.4192 173.231 38.4875 173.959 39.8842C174.693 41.2751 175.06 42.95 175.06 44.9091ZM171.749 44.9091C171.749 43.5301 171.533 42.3671 171.101 41.4201C170.675 40.4672 170.083 39.7481 169.325 39.2628C168.568 38.7715 167.695 38.5259 166.706 38.5259C165.718 38.5259 164.845 38.7715 164.087 39.2628C163.33 39.7481 162.735 40.4672 162.303 41.4201C161.877 42.3671 161.664 43.5301 161.664 44.9091C161.664 46.2881 161.877 47.4541 162.303 48.407C162.735 49.3539 163.33 50.073 164.087 50.5643C164.845 51.0496 165.718 51.2923 166.706 51.2923C167.695 51.2923 168.568 51.0496 169.325 50.5643C170.083 50.073 170.675 49.3539 171.101 48.407C171.533 47.4541 171.749 46.2881 171.749 44.9091ZM181.537 54L176.405 35.8182H179.948L183.223 49.1793H183.392L186.89 35.8182H190.113L193.619 49.1882H193.779L197.055 35.8182H200.597L195.466 54H192.217L188.577 41.2425H188.435L184.786 54H181.537Z" fill="black"/>
<rect y="3" width="50" height="50" rx="6.48649" fill="#FFDD2C"/>
<path d="M14.7917 37.0587C14.0929 37.0587 13.494 36.813 12.995 36.3216C12.4959 35.8225 12.2502 35.2236 12.2579 34.5249C12.2502 33.8339 12.4959 33.2426 12.995 32.7512C13.494 32.2598 14.0929 32.0141 14.7917 32.0141C15.4673 32.0141 16.0547 32.2598 16.5538 32.7512C17.0605 33.2426 17.3178 33.8339 17.3254 34.5249C17.3178 34.9933 17.1949 35.4194 16.9569 35.8033C16.7265 36.1872 16.4194 36.4943 16.0355 36.7247C15.6593 36.9473 15.2447 37.0587 14.7917 37.0587ZM14.7917 25.3687C14.0929 25.3687 13.494 25.123 12.995 24.6316C12.4959 24.1325 12.2502 23.5336 12.2579 22.8349C12.2502 22.1439 12.4959 21.5527 12.995 21.0613C13.494 20.5622 14.0929 20.3127 14.7917 20.3127C15.4673 20.3127 16.0547 20.5622 16.5538 21.0613C17.0605 21.5527 17.3178 22.1439 17.3254 22.8349C17.3178 23.2956 17.1949 23.7179 16.9569 24.1018C16.7265 24.4857 16.4194 24.7929 16.0355 25.0232C15.6593 25.2535 15.2447 25.3687 14.7917 25.3687ZM29.8072 39.8919H21.8143V16.3047H29.9684C32.3103 16.3047 34.3219 16.7769 36.0035 17.7213C37.6926 18.658 38.9902 20.0055 39.8963 21.7638C40.8023 23.5221 41.2553 25.6259 41.2553 28.0753C41.2553 30.5323 40.7984 32.6437 39.8847 34.4097C38.9787 36.1757 37.6696 37.5309 35.9574 38.4753C34.2528 39.4197 32.2028 39.8919 29.8072 39.8919ZM26.0871 36.1949H29.5999C31.243 36.1949 32.6136 35.8954 33.7115 35.2965C34.8095 34.69 35.6349 33.7878 36.1877 32.59C36.7406 31.3845 37.017 29.8796 37.017 28.0753C37.017 26.2709 36.7406 24.7737 36.1877 23.5836C35.6349 22.3858 34.8172 21.4913 33.7346 20.9C32.6596 20.3012 31.3236 20.0017 29.7266 20.0017H26.0871V36.1949Z" fill="black"/>
</svg>
