<svg width="50" height="50" viewBox="0 0 50 50" fill="none" xmlns="http://www.w3.org/2000/svg">
<rect width="50" height="50" rx="6.48649" fill="#FFDD2C"/>
<path d="M14.7916 34.0586C14.0929 34.0586 13.494 33.8129 12.9949 33.3215C12.4958 32.8224 12.2501 32.2235 12.2578 31.5248C12.2501 30.8338 12.4958 30.2426 12.9949 29.7512C13.494 29.2598 14.0929 29.0141 14.7916 29.0141C15.4673 29.0141 16.0546 29.2598 16.5537 29.7512C17.0605 30.2426 17.3177 30.8338 17.3254 31.5248C17.3177 31.9932 17.1948 32.4193 16.9568 32.8032C16.7265 33.1871 16.4194 33.4943 16.0354 33.7246C15.6592 33.9473 15.2446 34.0586 14.7916 34.0586ZM14.7916 22.3687C14.0929 22.3687 13.494 22.123 12.9949 21.6316C12.4958 21.1325 12.2501 20.5336 12.2578 19.8349C12.2501 19.1438 12.4958 18.5526 12.9949 18.0612C13.494 17.5621 14.0929 17.3126 14.7916 17.3126C15.4673 17.3126 16.0546 17.5621 16.5537 18.0612C17.0605 18.5526 17.3177 19.1438 17.3254 19.8349C17.3177 20.2956 17.1948 20.7179 16.9568 21.1018C16.7265 21.4857 16.4194 21.7928 16.0354 22.0231C15.6592 22.2535 15.2446 22.3687 14.7916 22.3687ZM29.8071 36.8918H21.8142V13.3046H29.9684C32.3102 13.3046 34.3219 13.7768 36.0034 14.7212C37.6926 15.658 38.9902 17.0055 39.8962 18.7638C40.8022 20.5221 41.2552 22.6259 41.2552 25.0752C41.2552 27.5322 40.7984 29.6437 39.8847 31.4097C38.9787 33.1756 37.6695 34.5308 35.9573 35.4752C34.2528 36.4196 32.2027 36.8918 29.8071 36.8918ZM26.0871 33.1948H29.5998C31.2429 33.1948 32.6135 32.8954 33.7115 32.2965C34.8094 31.6899 35.6348 30.7877 36.1877 29.5899C36.7405 28.3845 37.0169 26.8796 37.0169 25.0752C37.0169 23.2708 36.7405 21.7736 36.1877 20.5835C35.6348 19.3857 34.8171 18.4912 33.7345 17.9C32.6596 17.3011 31.3236 17.0016 29.7265 17.0016H26.0871V33.1948Z" fill="black"/>
</svg>
