<svg width="393" height="253" viewBox="0 0 393 253" fill="none" xmlns="http://www.w3.org/2000/svg">
<ellipse cx="197.012" cy="155.986" rx="74.383" ry="73.4975" fill="#EDC806"/>
<path d="M181.706 176.408C180.561 176.408 179.58 176.005 178.762 175.2C177.945 174.395 177.542 173.414 177.555 172.257C177.542 171.125 177.945 170.157 178.762 169.352C179.58 168.547 180.561 168.144 181.706 168.144C182.812 168.144 183.775 168.547 184.592 169.352C185.422 170.157 185.844 171.125 185.856 172.257C185.844 173.024 185.643 173.723 185.253 174.351C184.875 174.98 184.372 175.483 183.743 175.861C183.127 176.226 182.448 176.408 181.706 176.408ZM181.706 155.729C180.561 155.729 179.58 155.327 178.762 154.522C177.945 153.704 177.542 152.723 177.555 151.578C177.542 150.446 177.945 149.478 178.762 148.673C179.58 147.855 180.561 147.446 181.706 147.446C182.812 147.446 183.775 147.855 184.592 148.673C185.422 149.478 185.844 150.446 185.856 151.578C185.844 152.333 185.643 153.025 185.253 153.654C184.875 154.283 184.372 154.786 183.743 155.163C183.127 155.541 182.448 155.729 181.706 155.729ZM194.606 160.239C194.606 155.522 195.229 151.189 196.474 147.239C197.732 143.277 199.6 139.616 202.078 136.258H208.511C207.556 137.503 206.662 139.032 205.832 140.843C205.002 142.642 204.279 144.616 203.663 146.767C203.059 148.906 202.581 151.126 202.229 153.427C201.889 155.729 201.719 158 201.719 160.239C201.719 163.22 202.015 166.238 202.606 169.295C203.21 172.352 204.021 175.182 205.04 177.785C206.071 180.402 207.228 182.54 208.511 184.2H202.078C199.6 180.842 197.732 177.188 196.474 173.238C195.229 169.276 194.606 164.943 194.606 160.239Z" fill="black"/>
<path d="M8.39335 192.004V174.927L58.6956 95.4511H72.9353V119.763H64.2526L30.3897 173.422V174.349H100.604V192.004H8.39335ZM64.9472 214V186.794L65.1787 179.153V95.4511H85.4385V214H64.9472Z" fill="black"/>
<path d="M292.365 192.004V174.927L342.667 95.4511H356.907V119.763H348.224L314.361 173.422V174.349H384.576V192.004H292.365ZM348.919 214V186.794L349.15 179.153V95.4511H369.41V214H348.919Z" fill="black"/>
<path d="M176.378 57.1327H34V1H191V57.1327H187.487H186.487V58.1327V67.4685L177.108 57.4493L176.811 57.1327H176.378Z" fill="white" stroke="black" stroke-width="2"/>
<path d="M87.4006 26.9553L83.299 27.4027C83.183 26.9884 82.98 26.599 82.69 26.2344C82.4083 25.8698 82.0271 25.5756 81.5465 25.3519C81.0659 25.1282 80.4776 25.0163 79.7816 25.0163C78.8453 25.0163 78.0581 25.2193 77.4201 25.6254C76.7904 26.0314 76.4796 26.5575 76.4879 27.2038C76.4796 27.759 76.6826 28.2106 77.0969 28.5586C77.5195 28.9066 78.2156 29.1925 79.185 29.4162L82.4414 30.1122C84.2478 30.5017 85.5901 31.119 86.4684 31.9641C87.355 32.8093 87.8024 33.9155 87.8107 35.2827C87.8024 36.4841 87.4503 37.5447 86.7543 38.4645C86.0665 39.3759 85.1095 40.0885 83.8832 40.6023C82.6568 41.116 81.2482 41.3729 79.6573 41.3729C77.3207 41.3729 75.4397 40.884 74.0146 39.9062C72.5894 38.9202 71.7401 37.5489 71.4666 35.7923L75.854 35.3697C76.0529 36.2314 76.4755 36.8819 77.1218 37.321C77.7681 37.7602 78.6091 37.9798 79.6449 37.9798C80.7138 37.9798 81.5714 37.7602 82.2177 37.321C82.8723 36.8819 83.1996 36.3391 83.1996 35.6928C83.1996 35.146 82.9883 34.6944 82.5657 34.3381C82.1514 33.9818 81.5051 33.7083 80.6268 33.5178L77.3704 32.8342C75.5392 32.453 74.1844 31.8108 73.3061 30.9077C72.4278 29.9962 71.9928 28.8445 72.0011 27.4524C71.9928 26.2758 72.3118 25.2566 72.9581 24.3949C73.6127 23.5249 74.52 22.8537 75.68 22.3814C76.8484 21.9008 78.1948 21.6605 79.7195 21.6605C81.9567 21.6605 83.7174 22.137 85.0018 23.0898C86.2944 24.0427 87.094 25.3312 87.4006 26.9553ZM99.8482 41.3729C97.9838 41.3729 96.3681 40.9627 95.0009 40.1424C93.6337 39.3221 92.5731 38.1745 91.8191 36.6996C91.0733 35.2247 90.7005 33.5012 90.7005 31.5291C90.7005 29.5571 91.0733 27.8294 91.8191 26.3462C92.5731 24.863 93.6337 23.7113 95.0009 22.891C96.3681 22.0707 97.9838 21.6605 99.8482 21.6605C101.713 21.6605 103.328 22.0707 104.695 22.891C106.063 23.7113 107.119 24.863 107.865 26.3462C108.619 27.8294 108.996 29.5571 108.996 31.5291C108.996 33.5012 108.619 35.2247 107.865 36.6996C107.119 38.1745 106.063 39.3221 104.695 40.1424C103.328 40.9627 101.713 41.3729 99.8482 41.3729ZM99.873 37.7685C100.884 37.7685 101.729 37.4909 102.409 36.9357C103.088 36.3723 103.593 35.6183 103.925 34.6737C104.265 33.729 104.434 32.6767 104.434 31.5167C104.434 30.3484 104.265 29.2919 103.925 28.3473C103.593 27.3944 103.088 26.6362 102.409 26.0728C101.729 25.5094 100.884 25.2276 99.873 25.2276C98.8373 25.2276 97.9756 25.5094 97.2878 26.0728C96.6084 26.6362 96.0988 27.3944 95.7591 28.3473C95.4276 29.2919 95.2619 30.3484 95.2619 31.5167C95.2619 32.6767 95.4276 33.729 95.7591 34.6737C96.0988 35.6183 96.6084 36.3723 97.2878 36.9357C97.9756 37.4909 98.8373 37.7685 99.873 37.7685ZM112.815 41V21.9091H117.177V25.0909H117.376C117.724 23.9889 118.321 23.1396 119.166 22.543C120.019 21.9381 120.993 21.6357 122.087 21.6357C122.335 21.6357 122.613 21.6481 122.919 21.6729C123.234 21.6895 123.495 21.7185 123.703 21.7599V25.8988C123.512 25.8325 123.209 25.7745 122.795 25.7248C122.389 25.6668 121.996 25.6378 121.614 25.6378C120.794 25.6378 120.057 25.8159 119.402 26.1722C118.756 26.5202 118.246 27.005 117.873 27.6264C117.5 28.2479 117.314 28.9646 117.314 29.7766V41H112.815ZM126.692 41V21.9091H131.054V25.0909H131.253C131.601 23.9889 132.198 23.1396 133.043 22.543C133.896 21.9381 134.87 21.6357 135.964 21.6357C136.212 21.6357 136.49 21.6481 136.796 21.6729C137.111 21.6895 137.372 21.7185 137.579 21.7599V25.8988C137.389 25.8325 137.086 25.7745 136.672 25.7248C136.266 25.6668 135.873 25.6378 135.491 25.6378C134.671 25.6378 133.934 25.8159 133.279 26.1722C132.633 26.5202 132.123 27.005 131.75 27.6264C131.377 28.2479 131.191 28.9646 131.191 29.7766V41H126.692ZM143.946 48.1591C143.333 48.1591 142.765 48.1094 142.243 48.0099C141.73 47.9188 141.32 47.8111 141.013 47.6868L142.057 44.1818C142.712 44.3724 143.296 44.4635 143.809 44.4553C144.323 44.447 144.775 44.2854 145.164 43.9705C145.562 43.6639 145.898 43.1502 146.171 42.4293L146.556 41.3977L139.633 21.9091H144.406L148.806 36.3267H149.005L153.417 21.9091H158.202L150.558 43.3118C150.202 44.3227 149.73 45.1886 149.142 45.9094C148.553 46.6386 147.832 47.1938 146.979 47.5749C146.134 47.9644 145.123 48.1591 143.946 48.1591Z" fill="black"/>
</svg>
