<svg width="25" height="25" viewBox="0 0 25 25" fill="none" xmlns="http://www.w3.org/2000/svg">
<path d="M12.2812 8.25L15.5833 11.5417V11.375C15.5833 10.5462 15.2541 9.75134 14.668 9.16529C14.082 8.57924 13.2871 8.25 12.4583 8.25H12.2812ZM7.80208 9.08333L9.41667 10.6979C9.36458 10.9167 9.33333 11.1354 9.33333 11.375C9.33333 12.2038 9.66257 12.9987 10.2486 13.5847C10.8347 14.1708 11.6295 14.5 12.4583 14.5C12.6875 14.5 12.9167 14.4687 13.1354 14.4167L14.75 16.0312C14.0521 16.375 13.2812 16.5833 12.4583 16.5833C11.077 16.5833 9.75224 16.0346 8.77549 15.0578C7.79873 14.0811 7.25 12.7563 7.25 11.375C7.25 10.5521 7.45833 9.78125 7.80208 9.08333ZM2.04167 3.32292L4.41667 5.69792L4.88542 6.16667C3.16667 7.52083 1.8125 9.29167 1 11.375C2.80208 15.9479 7.25 19.1875 12.4583 19.1875C14.0729 19.1875 15.6146 18.875 17.0208 18.3125L17.4687 18.75L20.5104 21.7917L21.8333 20.4687L3.36458 2M12.4583 6.16667C13.8397 6.16667 15.1644 6.7154 16.1412 7.69215C17.1179 8.6689 17.6667 9.99366 17.6667 11.375C17.6667 12.0417 17.5312 12.6875 17.2917 13.2708L20.3437 16.3229C21.9062 15.0208 23.1562 13.3125 23.9167 11.375C22.1146 6.80208 17.6667 3.5625 12.4583 3.5625C11 3.5625 9.60417 3.82292 8.29167 4.29167L10.5521 6.53125C11.1458 6.30208 11.7812 6.16667 12.4583 6.16667Z" fill="black"/>
</svg>
