<svg width="33" height="34" viewBox="0 0 33 34" fill="none" xmlns="http://www.w3.org/2000/svg">
<path d="M23.5849 21.3836H22.0943L21.566 20.8588C23.479 18.5727 24.5304 15.6542 24.5283 12.6358C24.5283 10.1367 23.809 7.69367 22.4614 5.61573C21.1138 3.53778 19.1984 1.91822 16.9574 0.961848C14.7165 0.00547489 12.2505 -0.244756 9.87154 0.242799C7.49252 0.730354 5.30726 1.9338 3.59209 3.70094C1.87692 5.46809 0.708873 7.71957 0.235658 10.1707C-0.237557 12.6218 0.00531387 15.1624 0.933558 17.4713C1.8618 19.7802 3.43373 21.7536 5.45056 23.1421C7.46739 24.5305 9.83853 25.2716 12.2642 25.2716C15.3019 25.2716 18.0943 24.1246 20.2453 22.2196L20.7547 22.7639V24.2996L30.1887 34L33 31.1035L23.5849 21.3836ZM12.2642 21.3836C7.56604 21.3836 3.77359 17.4763 3.77359 12.6358C3.77359 7.79532 7.56604 3.88794 12.2642 3.88794C16.9623 3.88794 20.7547 7.79532 20.7547 12.6358C20.7547 17.4763 16.9623 21.3836 12.2642 21.3836Z" fill="black"/>
</svg>
