<svg width="25" height="25" viewBox="0 0 25 25" fill="none" xmlns="http://www.w3.org/2000/svg">
<path d="M12.4583 7.6875C11.6295 7.6875 10.8347 8.01674 10.2486 8.60279C9.66257 9.18884 9.33333 9.9837 9.33333 10.8125C9.33333 11.6413 9.66257 12.4362 10.2486 13.0222C10.8347 13.6083 11.6295 13.9375 12.4583 13.9375C13.2871 13.9375 14.082 13.6083 14.668 13.0222C15.2541 12.4362 15.5833 11.6413 15.5833 10.8125C15.5833 9.9837 15.2541 9.18884 14.668 8.60279C14.082 8.01674 13.2871 7.6875 12.4583 7.6875ZM12.4583 16.0208C11.077 16.0208 9.75224 15.4721 8.77549 14.4953C7.79873 13.5186 7.25 12.1938 7.25 10.8125C7.25 9.43116 7.79873 8.1064 8.77549 7.12965C9.75224 6.1529 11.077 5.60417 12.4583 5.60417C13.8397 5.60417 15.1644 6.1529 16.1412 7.12965C17.1179 8.1064 17.6667 9.43116 17.6667 10.8125C17.6667 12.1938 17.1179 13.5186 16.1412 14.4953C15.1644 15.4721 13.8397 16.0208 12.4583 16.0208ZM12.4583 3C7.25 3 2.80208 6.23958 1 10.8125C2.80208 15.3854 7.25 18.625 12.4583 18.625C17.6667 18.625 22.1146 15.3854 23.9167 10.8125C22.1146 6.23958 17.6667 3 12.4583 3Z" fill="black"/>
</svg>
